STARTFONT 2.1
COMMENT
COMMENT Converted from OpenType font "Q:\font stuff\winfont\White Rabbit.ttf" by "otf2bdf 3.0".
COMMENT
FONT -FreeType-White Rabbit-Medium-R-Normal--96-960-72-72-P-395-ISO10646-1
SIZE 96 72 72
FONTBOUNDINGBOX 50 74 0 -10
STARTPROPERTIES 19
FOUNDRY "FreeType"
FAMILY_NAME "White Rabbit"
WEIGHT_NAME "Medium"
SLANT "R"
SETWIDTH_NAME "Normal"
ADD_STYLE_NAME ""
PIXEL_SIZE 96
POINT_SIZE 960
RESOLUTION_X 72
RESOLUTION_Y 72
SPACING "P"
AVERAGE_WIDTH 395
CHARSET_REGISTRY "ISO10646"
CHARSET_ENCODING "1"
FONT_ASCENT 64
FONT_DESCENT 9
COPYRIGHT "Copyright © 1999 by Matthew Welch. All Rights Reserved."
_OTF_FONTFILE "Q:\font stuff\winfont\White Rabbit.ttf"
_OTF_PSNAME "WhiteRabbit"
ENDPROPERTIES
CHARS 96
STARTCHAR 0020
ENCODING 32
SWIDTH 572 0
DWIDTH 55 0
BBX 0 0 0 0
BITMAP
ENDCHAR
STARTCHAR 0021
ENCODING 33
SWIDTH 572 0
DWIDTH 55 0
BBX 18 64 14 0
BITMAP
3FFE00
7FFF80
FFFF80
FFFFC0
FFFFC0
FFFFC0
FFFFC0
FFFFC0
FFFFC0
FFFFC0
FFFFC0
FFFFC0
FFFFC0
FFFFC0
FFFFC0
FFFFC0
FFFFC0
FFFFC0
FFFFC0
FFFFC0
FFFFC0
FFFFC0
FFFFC0
FFFFC0
FFFFC0
FFFFC0
FFFFC0
FFFFC0
FFFFC0
FFFFC0
FFFFC0
FFFFC0
FFFFC0
FFFFC0
FFFF80
7FFF00
0FFC00
000000
000000
000000
000000
000000
000000
000000
000000
000000
3FFF00
7FFF80
FFFFC0
FFFFC0
FFFFC0
FFFFC0
FFFFC0
FFFFC0
FFFFC0
FFFFC0
FFFFC0
FFFFC0
FFFFC0
FFFFC0
FFFFC0
FFFF80
7FFF80
3FFE00
ENDCHAR
STARTCHAR 0022
ENCODING 34
SWIDTH 572 0
DWIDTH 55 0
BBX 27 18 14 45
BITMAP
3C000780
7F001FC0
FF001FE0
FF803FE0
FF803FE0
FF803FE0
FF803FE0
FF803FE0
FF803FE0
FF803FE0
FF803FE0
FF803FE0
FF803FE0
FF803FE0
FF803FE0
FF003FE0
7F001FC0
3E000F80
ENDCHAR
STARTCHAR 0023
ENCODING 35
SWIDTH 572 0
DWIDTH 55 0
BBX 45 64 5 0
BITMAP
001E0003C000
003F800FE000
007F800FF000
007FC01FF000
007FC01FF000
007FC01FF000
007FC01FF000
007FC01FF000
007FC01FF000
007FC01FF000
007FC01FF000
007FC01FF000
007FC01FF000
007FC01FF000
007FC01FF000
007FC01FF000
007FC01FF000
007FC01FF000
1FFFFFFFFFC0
7FFFFFFFFFF0
FFFFFFFFFFF8
FFFFFFFFFFF8
FFFFFFFFFFF8
FFFFFFFFFFF8
FFFFFFFFFFF8
FFFFFFFFFFF0
7FFFFFFFFFE0
007FC01FF000
007FC01FF000
007FC01FF000
007FC01FF000
007FC01FF000
007FC01FF000
007FC01FF000
007FC01FF000
007FC01FF000
007FC01FF000
7FFFFFFFFFE0
FFFFFFFFFFF0
FFFFFFFFFFF8
FFFFFFFFFFF8
FFFFFFFFFFF8
FFFFFFFFFFF8
FFFFFFFFFFF8
7FFFFFFFFFF0
1FFFFFFFFFC0
007FC01FF000
007FC01FF000
007FC01FF000
007FC01FF000
007FC01FF000
007FC01FF000
007FC01FF000
007FC01FF000
007FC01FF000
007FC01FF000
007FC01FF000
007FC01FF000
007FC01FF000
007FC01FF000
007FC01FF000
007F800FF000
003F800FE000
001E0003C000
ENDCHAR
STARTCHAR 0024
ENCODING 36
SWIDTH 572 0
DWIDTH 55 0
BBX 45 64 5 0
BITMAP
00000F000000
00001FC00000
00003FC00000
00003FE00000
00003FE00000
00003FE00000
00003FE00000
00003FE00000
00003FE00000
003FFFFFFFC0
01FFFFFFFFF0
03FFFFFFFFF8
0FFFFFFFFFF8
1FFFFFFFFFF8
1FFFFFFFFFF8
3FFFFFFFFFF8
7FFFFFFFFFF0
7FFFFFFFFFE0
FFF03FE00000
FFC03FE00000
FF803FE00000
FF803FE00000
FF803FE00000
FF803FE00000
FF803FE00000
FFC03FE00000
FFE03FE00000
FFFFFFFF0000
7FFFFFFFF800
7FFFFFFFFE00
3FFFFFFFFF00
1FFFFFFFFF80
0FFFFFFFFFC0
07FFFFFFFFE0
03FFFFFFFFE0
00FFFFFFFFF0
000FFFFFFFF0
00003FE03FF8
00003FE01FF8
00003FE00FF8
00003FE00FF8
00003FE00FF8
00003FE00FF8
00003FE01FF8
00003FE01FF8
00003FE07FF8
3FFFFFFFFFF0
7FFFFFFFFFF0
FFFFFFFFFFE0
FFFFFFFFFFC0
FFFFFFFFFF80
FFFFFFFFFF00
FFFFFFFFFE00
7FFFFFFFF800
3FFFFFFFE000
00003FE00000
00003FE00000
00003FE00000
00003FE00000
00003FE00000
00003FE00000
00003FC00000
00001FC00000
00000F000000
ENDCHAR
STARTCHAR 0025
ENCODING 37
SWIDTH 572 0
DWIDTH 55 0
BBX 45 64 5 0
BITMAP
3FFE000001E0
7FFF800007F0
FFFF800007F8
FFFFC0000FF8
FFFFC0000FF8
FFFFC0000FF8
FFFFC0000FF8
FFFFC0000FF8
FFFFC0000FF8
FFFFC0000FF8
FFFFC0000FF8
FFFFC0000FF8
FFFFC0001FF8
FFFFC0003FF8
FFFFC0007FF8
FFFF8000FFF8
7FFF8001FFF0
3FFF0003FFE0
00000007FFC0
0000000FFF80
0000001FFF00
0000003FFE00
0000007FFC00
000000FFF800
000001FFF000
000003FFE000
000007FFC000
00000FFF8000
00001FFF0000
00003FFE0000
00007FFC0000
0000FFF80000
0001FFF00000
0003FFE00000
0007FFC00000
000FFF800000
001FFF000000
003FFE000000
007FFC000000
00FFF8000000
01FFF0000000
03FFE0000000
07FFC0000000
0FFF80000000
1FFF00000000
3FFE00000000
7FFC0007FFE0
7FF8000FFFF0
FFF0001FFFF8
FFE0001FFFF8
FFC0001FFFF8
FF80001FFFF8
FF80001FFFF8
FF80001FFFF8
FF80001FFFF8
FF80001FFFF8
FF80001FFFF8
FF80001FFFF8
FF80001FFFF8
FF80001FFFF8
FF80001FFFF8
FF00000FFFF8
7E00000FFFF0
3C000003FFE0
ENDCHAR
STARTCHAR 0026
ENCODING 38
SWIDTH 572 0
DWIDTH 55 0
BBX 45 64 5 0
BITMAP
003F80000000
01FFE0000000
03FFF8000000
0FFFFC000000
1FFFFE000000
3FFFFF000000
3FFFFF800000
7FFFFF800000
7FFFFFC00000
FFF1FFC00000
FFC0FFE00000
FF807FE00000
FF803FE00000
FF803FE00000
FF803FE00000
FF803FE00000
FF803FE00000
FF803FE00000
FF803FE00000
FF803FE00000
FF803FE00000
FF807FE00000
FFC0FFE00000
FFE1FFE00000
FFF3FFE00000
FFFFFFC00000
7FFFFF800000
3FFFFF000000
1FFFFE000000
0FFFFC000000
07FFF8000000
03FFF0000000
03FFF0000000
07FFF8000000
0FFFFC000000
1FFFFE000000
3FFFFF000000
7FFFFF8003E0
FFFFFFC007F0
FFF3FFE00FF8
FFE1FFF01FF8
FFC0FFF83FF8
FF807FFC7FF8
FF803FFEFFF8
FF801FFFFFF0
FF800FFFFFE0
FF8007FFFFC0
FF8003FFFF80
FF8001FFFF00
FF8000FFFE00
FF80007FFC00
FF8000FFFE00
FF8001FFFF00
FFC003FFFF80
FFF007FFFFC0
7FFFFFFFFFE0
7FFFFFFFFFF0
3FFFFFFEFFF8
3FFFFFFC7FF8
1FFFFFF83FF8
0FFFFFF01FF8
03FFFFE00FF8
01FFFFC007F0
003FFF0001E0
ENDCHAR
STARTCHAR 0027
ENCODING 39
SWIDTH 572 0
DWIDTH 55 0
BBX 9 18 23 45
BITMAP
3C00
7F00
FF00
FF80
FF80
FF80
FF80
FF80
FF80
FF80
FF80
FF80
FF80
FF80
FF80
FF80
7F00
3E00
ENDCHAR
STARTCHAR 0028
ENCODING 40
SWIDTH 572 0
DWIDTH 55 0
BBX 18 64 23 0
BITMAP
003F00
01FF80
03FFC0
07FFC0
0FFFC0
1FFFC0
3FFFC0
7FFF80
7FFF00
7FF000
FFC000
FFC000
FF8000
FF8000
FF8000
FF8000
FF8000
FF8000
FF8000
FF8000
FF8000
FF8000
FF8000
FF8000
FF8000
FF8000
FF8000
FF8000
FF8000
FF8000
FF8000
FF8000
FF8000
FF8000
FF8000
FF8000
FF8000
FF8000
FF8000
FF8000
FF8000
FF8000
FF8000
FF8000
FF8000
FF8000
FF8000
FF8000
FF8000
FF8000
FF8000
FF8000
FFC000
FFC000
7FF000
7FFF00
7FFF80
3FFFC0
1FFFC0
0FFFC0
07FFC0
03FFC0
01FF80
003F00
ENDCHAR
STARTCHAR 0029
ENCODING 41
SWIDTH 572 0
DWIDTH 55 0
BBX 18 64 14 0
BITMAP
3F0000
7FC000
FFF000
FFF800
FFFC00
FFFE00
FFFF00
7FFF00
3FFF80
03FF80
01FFC0
00FFC0
007FC0
007FC0
007FC0
007FC0
007FC0
007FC0
007FC0
007FC0
007FC0
007FC0
007FC0
007FC0
007FC0
007FC0
007FC0
007FC0
007FC0
007FC0
007FC0
007FC0
007FC0
007FC0
007FC0
007FC0
007FC0
007FC0
007FC0
007FC0
007FC0
007FC0
007FC0
007FC0
007FC0
007FC0
007FC0
007FC0
007FC0
007FC0
007FC0
007FC0
00FFC0
01FFC0
03FF80
3FFF80
7FFF00
FFFF00
FFFE00
FFFC00
FFF800
FFF000
7FC000
3F0000
ENDCHAR
STARTCHAR 002A
ENCODING 42
SWIDTH 572 0
DWIDTH 55 0
BBX 45 46 5 18
BITMAP
001E0003C000
003F800FE000
007F800FF000
007FC01FF000
007FC01FF000
007FE03FF000
007FE03FF000
003FF07FE000
003FF07FC000
001FF0FFC000
000FF8FF8000
000FF9FF8000
0007FDFF0000
0007FFFF0000
0003FFFE0000
0003FFFE0000
0001FFFC0000
0001FFFC0000
1FFFFFFFFFC0
7FFFFFFFFFF0
FFFFFFFFFFF8
FFFFFFFFFFF8
FFFFFFFFFFF8
FFFFFFFFFFF8
FFFFFFFFFFF8
FFFFFFFFFFF0
7FFFFFFFFFE0
0000FFF80000
0001FFFC0000
0001FFFC0000
0003FFFE0000
0007FFFE0000
0007FDFF0000
000FFDFF0000
000FF9FF8000
001FF8FF8000
001FF0FFC000
003FF07FE000
003FE07FE000
007FE03FF000
007FC03FF000
007FC01FF000
007F801FF000
007F800FE000
003F0007E000
000C00038000
ENDCHAR
STARTCHAR 002B
ENCODING 43
SWIDTH 572 0
DWIDTH 55 0
BBX 45 46 5 9
BITMAP
000007000000
00001FC00000
00003FC00000
00003FE00000
00003FE00000
00003FE00000
00003FE00000
00003FE00000
00003FE00000
00003FE00000
00003FE00000
00003FE00000
00003FE00000
00003FE00000
00003FE00000
00003FE00000
00003FE00000
00003FE00000
0FFFFFFFFF80
7FFFFFFFFFF0
FFFFFFFFFFF0
FFFFFFFFFFF8
FFFFFFFFFFF8
FFFFFFFFFFF8
FFFFFFFFFFF8
FFFFFFFFFFF8
7FFFFFFFFFF0
0FFFFFFFFF80
00003FE00000
00003FE00000
00003FE00000
00003FE00000
00003FE00000
00003FE00000
00003FE00000
00003FE00000
00003FE00000
00003FE00000
00003FE00000
00003FE00000
00003FE00000
00003FE00000
00003FE00000
00003FC00000
00001FC00000
000007000000
ENDCHAR
STARTCHAR 002C
ENCODING 44
SWIDTH 572 0
DWIDTH 55 0
BBX 18 27 14 -9
BITMAP
3FFF00
7FFF80
FFFFC0
FFFFC0
FFFFC0
FFFFC0
FFFFC0
FFFFC0
FFFFC0
FFFFC0
FFFFC0
FFFFC0
FFFFC0
FFFFC0
FFFFC0
FFFF80
FFFF80
FFFF00
FFFE00
FFFC00
FFF800
FFF000
FFE000
FFC000
FF8000
7F0000
3E0000
ENDCHAR
STARTCHAR 002D
ENCODING 45
SWIDTH 572 0
DWIDTH 55 0
BBX 45 10 5 27
BITMAP
0FFFFFFFFF80
7FFFFFFFFFF0
FFFFFFFFFFF0
FFFFFFFFFFF8
FFFFFFFFFFF8
FFFFFFFFFFF8
FFFFFFFFFFF8
FFFFFFFFFFF8
7FFFFFFFFFF0
0FFFFFFFFF80
ENDCHAR
STARTCHAR 002E
ENCODING 46
SWIDTH 572 0
DWIDTH 55 0
BBX 18 18 14 1
BITMAP
3FFF00
7FFF80
FFFFC0
FFFFC0
FFFFC0
FFFFC0
FFFFC0
FFFFC0
FFFFC0
FFFFC0
FFFFC0
FFFFC0
FFFFC0
FFFFC0
FFFFC0
FFFF80
7FFF80
3FFE00
ENDCHAR
STARTCHAR 002F
ENCODING 47
SWIDTH 572 0
DWIDTH 55 0
BBX 45 64 5 0
BITMAP
0000000001E0
0000000007F0
0000000007F8
000000000FF8
000000000FF8
000000000FF8
000000000FF8
000000000FF8
000000000FF8
000000000FF8
000000000FF8
000000000FF8
000000001FF8
000000003FF8
000000007FF8
00000000FFF8
00000001FFF0
00000003FFE0
00000007FFC0
0000000FFF80
0000001FFF00
0000003FFE00
0000007FFC00
000000FFF800
000001FFF000
000003FFE000
000007FFC000
00000FFF8000
00001FFF0000
00003FFE0000
00007FFC0000
0000FFF80000
0001FFF00000
0003FFE00000
0007FFC00000
000FFF800000
001FFF000000
003FFE000000
007FFC000000
00FFF8000000
01FFF0000000
03FFE0000000
07FFC0000000
0FFF80000000
1FFF00000000
3FFE00000000
7FFC00000000
7FF800000000
FFF000000000
FFE000000000
FFC000000000
FF8000000000
FF8000000000
FF8000000000
FF8000000000
FF8000000000
FF8000000000
FF8000000000
FF8000000000
FF8000000000
FF8000000000
FF0000000000
7E0000000000
3C0000000000
ENDCHAR
STARTCHAR 0030
ENCODING 48
SWIDTH 572 0
DWIDTH 55 0
BBX 45 64 5 0
BITMAP
003FFFFFE000
01FFFFFFFC00
03FFFFFFFE00
0FFFFFFFFF00
1FFFFFFFFFC0
3FFFFFFFFFC0
3FFFFFFFFFE0
7FFFFFFFFFF0
7FFFFFFFFFF0
FFF000007FF8
FFC000001FF8
FF8000000FF8
FF8000000FF8
FF8000000FF8
FF8000001FF8
FF8000003FF8
FF8000007FF8
FF800000FFF8
FF800001FFF8
FF800003FFF8
FF800007FFF8
FF80001FFFF8
FF80003FFFF8
FF80007FFFF8
FF8000FFFFF8
FF8001FFFFF8
FF8003FFEFF8
FF8007FFCFF8
FF800FFF8FF8
FF801FFF0FF8
FF807FFE0FF8
FF80FFFC0FF8
FF81FFF00FF8
FF83FFE00FF8
FF87FFC00FF8
FF8FFF800FF8
FF9FFF000FF8
FFBFFE000FF8
FFFFFC000FF8
FFFFF8000FF8
FFFFF0000FF8
FFFFC0000FF8
FFFF80000FF8
FFFF00000FF8
FFFE00000FF8
FFFC00000FF8
FFF800000FF8
FFF000000FF8
FFE000000FF8
FFC000000FF8
FF8000000FF8
FF8000000FF8
FF8000000FF8
FFC000001FF8
FFF000007FF8
7FFFFFFFFFF0
7FFFFFFFFFF0
3FFFFFFFFFE0
3FFFFFFFFFC0
1FFFFFFFFFC0
0FFFFFFFFF80
03FFFFFFFE00
01FFFFFFFC00
003FFFFFE000
ENDCHAR
STARTCHAR 0031
ENCODING 49
SWIDTH 572 0
DWIDTH 55 0
BBX 27 64 14 0
BITMAP
001E0000
003F8000
007F8000
00FFC000
01FFC000
03FFC000
07FFC000
0FFFC000
1FFFC000
3FFFC000
7FFFC000
FFFFC000
FFFFC000
FFFFC000
FFFFC000
FFFFC000
7F7FC000
3E7FC000
007FC000
007FC000
007FC000
007FC000
007FC000
007FC000
007FC000
007FC000
007FC000
007FC000
007FC000
007FC000
007FC000
007FC000
007FC000
007FC000
007FC000
007FC000
007FC000
007FC000
007FC000
007FC000
007FC000
007FC000
007FC000
007FC000
007FC000
007FC000
007FC000
007FC000
007FC000
007FC000
007FC000
007FC000
007FC000
007FC000
007FC000
3FFFFF80
7FFFFFC0
FFFFFFE0
FFFFFFE0
FFFFFFE0
FFFFFFE0
FFFFFFE0
7FFFFFC0
3FFFFF80
ENDCHAR
STARTCHAR 0032
ENCODING 50
SWIDTH 572 0
DWIDTH 55 0
BBX 45 64 5 0
BITMAP
003FFFFFE000
01FFFFFFFC00
03FFFFFFFE00
0FFFFFFFFF00
1FFFFFFFFFC0
3FFFFFFFFFC0
3FFFFFFFFFE0
7FFFFFFFFFF0
7FFFFFFFFFF0
FFF000007FF8
FFC000001FF8
FF8000000FF8
FF8000000FF8
FF8000000FF8
FF8000000FF8
FF0000000FF8
7F0000000FF8
3E0000000FF8
000000000FF8
000000000FF8
000000000FF8
000000001FF8
000000003FF8
000000007FF8
00000000FFF8
00000001FFF0
00000003FFE0
00000007FFC0
0000000FFF80
0000000FFF00
0000001FFE00
0000003FFC00
0000007FF800
000000FFF000
000001FFE000
000003FFC000
000007FF8000
00000FFF0000
00001FFE0000
00003FFC0000
00007FF80000
0000FFF00000
0001FFE00000
0003FFC00000
0007FF800000
000FFF000000
001FFE000000
003FFC000000
007FF8000000
00FFF0000000
01FFE0000000
03FFC0000000
07FF80000000
0FFF00000000
1FFE00000000
3FFFFFFFFFE0
7FFFFFFFFFF0
FFFFFFFFFFF8
FFFFFFFFFFF8
FFFFFFFFFFF8
FFFFFFFFFFF8
FFFFFFFFFFF8
7FFFFFFFFFF0
3FFFFFFFFFE0
ENDCHAR
STARTCHAR 0033
ENCODING 51
SWIDTH 572 0
DWIDTH 55 0
BBX 45 64 5 0
BITMAP
003FFFFFE000
01FFFFFFFC00
03FFFFFFFE00
0FFFFFFFFF00
1FFFFFFFFFC0
3FFFFFFFFFC0
3FFFFFFFFFE0
7FFFFFFFFFF0
7FFFFFFFFFF0
FFF000007FF8
FFC000001FF8
FF8000000FF8
FF8000000FF8
FF8000000FF8
FF8000000FF8
FF0000000FF8
7F0000000FF8
3E0000000FF8
000000000FF8
000000000FF8
000000000FF8
000000000FF8
000000000FF8
000000000FF8
000000000FF8
000000001FF8
000000003FF8
000003FFFFF0
00000FFFFFF0
00001FFFFFE0
00003FFFFFE0
00003FFFFFC0
00003FFFFF80
00003FFFFFC0
00001FFFFFE0
00000FFFFFF0
000003FFFFF0
000000003FF8
000000001FF8
000000000FF8
000000000FF8
000000000FF8
000000000FF8
000000000FF8
000000000FF8
000000000FF8
3E0000000FF8
7F0000000FF8
FF0000000FF8
FF8000000FF8
FF8000000FF8
FF8000000FF8
FF8000000FF8
FFC000001FF8
FFF000007FF8
7FFFFFFFFFF0
7FFFFFFFFFF0
3FFFFFFFFFE0
3FFFFFFFFFC0
1FFFFFFFFFC0
0FFFFFFFFF80
03FFFFFFFE00
01FFFFFFFC00
003FFFFFE000
ENDCHAR
STARTCHAR 0034
ENCODING 52
SWIDTH 572 0
DWIDTH 55 0
BBX 45 64 5 0
BITMAP
00000003C000
0000000FE000
0000000FF000
0000001FF000
0000001FF000
0000001FF000
0000001FF000
0000001FF000
0000001FF000
3C00001FF000
7E00001FF000
FF00001FF000
FF80001FF000
FF80001FF000
FF80001FF000
FF80001FF000
FF80001FF000
FF80001FF000
FF80001FF000
FF80001FF000
FF80001FF000
FF80001FF000
FF80001FF000
FF80001FF000
FF80001FF000
FF80001FF000
FF80001FF000
FF80001FF000
FF80001FF000
FF80001FF000
FF80001FF000
FF80001FF000
FF80001FF000
FF80001FF000
FF80001FF000
FF80001FF000
FF80001FF000
FFFFFFFFFFE0
FFFFFFFFFFF0
FFFFFFFFFFF8
FFFFFFFFFFF8
FFFFFFFFFFF8
FFFFFFFFFFF8
FFFFFFFFFFF8
7FFFFFFFFFF0
1FFFFFFFFFC0
0000001FF000
0000001FF000
0000001FF000
0000001FF000
0000001FF000
0000001FF000
0000001FF000
0000001FF000
0000001FF000
0000001FF000
0000001FF000
0000001FF000
0000001FF000
0000001FF000
0000001FF000
0000000FF000
0000000FE000
00000003C000
ENDCHAR
STARTCHAR 0035
ENCODING 53
SWIDTH 572 0
DWIDTH 55 0
BBX 45 64 5 0
BITMAP
3FFFFFFFFFE0
7FFFFFFFFFF0
FFFFFFFFFFF8
FFFFFFFFFFF8
FFFFFFFFFFF8
FFFFFFFFFFF8
FFFFFFFFFFF8
FFFFFFFFFFF0
FFFFFFFFFFE0
FF8000000000
FF8000000000
FF8000000000
FF8000000000
FF8000000000
FF8000000000
FF8000000000
FF8000000000
FF8000000000
FF8000000000
FF8000000000
FF8000000000
FF8000000000
FF8000000000
FF8000000000
FF8000000000
FF8000000000
FF8000000000
FFFFFFFF0000
FFFFFFFFF800
FFFFFFFFFE00
FFFFFFFFFF00
FFFFFFFFFF80
FFFFFFFFFFC0
FFFFFFFFFFE0
FFFFFFFFFFE0
7FFFFFFFFFF0
0FFFFFFFFFF0
000000003FF8
000000001FF8
000000000FF8
000000000FF8
000000000FF8
000000000FF8
000000000FF8
000000000FF8
000000000FF8
000000000FF8
000000000FF8
000000000FF8
000000000FF8
000000000FF8
000000000FF8
000000000FF8
000000001FF8
000000007FF8
3FFFFFFFFFF0
7FFFFFFFFFF0
FFFFFFFFFFE0
FFFFFFFFFFC0
FFFFFFFFFFC0
FFFFFFFFFF80
FFFFFFFFFE00
7FFFFFFFFC00
3FFFFFFFE000
ENDCHAR
STARTCHAR 0036
ENCODING 54
SWIDTH 572 0
DWIDTH 55 0
BBX 45 64 5 0
BITMAP
003FFFFFC000
01FFFFFFE000
03FFFFFFF000
0FFFFFFFF000
1FFFFFFFF000
3FFFFFFFF000
3FFFFFFFF000
7FFFFFFFE000
7FFFFFFFC000
FFF000000000
FFC000000000
FF8000000000
FF8000000000
FF8000000000
FF8000000000
FF8000000000
FF8000000000
FF8000000000
FF8000000000
FF8000000000
FF8000000000
FF8000000000
FF8000000000
FF8000000000
FF8000000000
FF8000000000
FF8000000000
FFFFFFFF0000
FFFFFFFFF800
FFFFFFFFFE00
FFFFFFFFFF00
FFFFFFFFFFC0
FFFFFFFFFFC0
FFFFFFFFFFE0
FFFFFFFFFFF0
FFFFFFFFFFF0
FFFFFFFFFFF8
FF8000003FF8
FF8000001FF8
FF8000000FF8
FF8000000FF8
FF8000000FF8
FF8000000FF8
FF8000000FF8
FF8000000FF8
FF8000000FF8
FF8000000FF8
FF8000000FF8
FF8000000FF8
FF8000000FF8
FF8000000FF8
FF8000000FF8
FF8000000FF8
FFC000001FF8
FFF000007FF8
7FFFFFFFFFF0
7FFFFFFFFFF0
3FFFFFFFFFE0
3FFFFFFFFFC0
1FFFFFFFFFC0
0FFFFFFFFF80
03FFFFFFFE00
01FFFFFFFC00
003FFFFFE000
ENDCHAR
STARTCHAR 0037
ENCODING 55
SWIDTH 572 0
DWIDTH 55 0
BBX 45 64 5 0
BITMAP
3FFFFFFFFFE0
7FFFFFFFFFF0
FFFFFFFFFFF8
FFFFFFFFFFF8
FFFFFFFFFFF8
FFFFFFFFFFF8
FFFFFFFFFFF8
7FFFFFFFFFF8
3FFFFFFFFFF8
000000000FF8
000000000FF8
000000000FF8
000000000FF8
000000000FF8
000000000FF8
000000000FF8
000000000FF8
000000000FF8
000000000FF8
000000000FF8
000000000FF8
000000001FF8
000000003FF8
000000007FF8
00000000FFF8
00000001FFF0
00000003FFE0
00000007FFC0
0000000FFF80
0000000FFF00
0000001FFE00
0000003FFC00
0000007FF800
000000FFF000
000001FFE000
000003FFC000
000007FF8000
00000FFF0000
00001FFE0000
00003FFC0000
00007FF80000
0000FFF00000
0001FFE00000
0003FFC00000
0007FF800000
000FFF000000
001FFE000000
003FFC000000
007FF8000000
00FFF0000000
01FFE0000000
03FFC0000000
07FF80000000
0FFF00000000
1FFE00000000
3FFC00000000
7FF800000000
FFF000000000
FFE000000000
FFC000000000
FF8000000000
FF0000000000
7E0000000000
3C0000000000
ENDCHAR
STARTCHAR 0038
ENCODING 56
SWIDTH 572 0
DWIDTH 55 0
BBX 45 64 5 0
BITMAP
003FFFFFE000
01FFFFFFFC00
03FFFFFFFE00
0FFFFFFFFF00
1FFFFFFFFFC0
3FFFFFFFFFC0
3FFFFFFFFFE0
7FFFFFFFFFF0
7FFFFFFFFFF0
FFF000007FF8
FFC000001FF8
FF8000000FF8
FF8000000FF8
FF8000000FF8
FF8000000FF8
FF8000000FF8
FF8000000FF8
FF8000000FF8
FF8000000FF8
FF8000000FF8
FF8000000FF8
FF8000000FF8
FF8000000FF8
FF8000000FF8
FF8000000FF8
FFC000001FF8
FFE000003FF8
FFFFFFFFFFF0
7FFFFFFFFFF0
3FFFFFFFFFE0
3FFFFFFFFFE0
0FFFFFFFFFC0
1FFFFFFFFF80
3FFFFFFFFFC0
7FFFFFFFFFE0
7FFFFFFFFFF0
FFFFFFFFFFF0
FFE000003FF8
FFC000001FF8
FF8000000FF8
FF8000000FF8
FF8000000FF8
FF8000000FF8
FF8000000FF8
FF8000000FF8
FF8000000FF8
FF8000000FF8
FF8000000FF8
FF8000000FF8
FF8000000FF8
FF8000000FF8
FF8000000FF8
FF8000000FF8
FFC000001FF8
FFF000007FF8
7FFFFFFFFFF0
7FFFFFFFFFF0
3FFFFFFFFFE0
3FFFFFFFFFC0
1FFFFFFFFFC0
0FFFFFFFFF80
03FFFFFFFE00
01FFFFFFFC00
003FFFFFE000
ENDCHAR
STARTCHAR 0039
ENCODING 57
SWIDTH 572 0
DWIDTH 55 0
BBX 45 64 5 0
BITMAP
003FFFFFE000
01FFFFFFFC00
03FFFFFFFE00
0FFFFFFFFF00
1FFFFFFFFFC0
3FFFFFFFFFC0
3FFFFFFFFFE0
7FFFFFFFFFF0
7FFFFFFFFFF0
FFF000007FF8
FFC000001FF8
FF8000000FF8
FF8000000FF8
FF8000000FF8
FF8000000FF8
FF8000000FF8
FF8000000FF8
FF8000000FF8
FF8000000FF8
FF8000000FF8
FF8000000FF8
FF8000000FF8
FF8000000FF8
FF8000000FF8
FF8000000FF8
FFC000000FF8
FFE000000FF8
FFFFFFFFFFF8
7FFFFFFFFFF8
7FFFFFFFFFF8
3FFFFFFFFFF8
3FFFFFFFFFF8
1FFFFFFFFFF8
0FFFFFFFFFF8
03FFFFFFFFF8
00FFFFFFFFF8
000FFFFFFFF8
000000000FF8
000000000FF8
000000000FF8
000000000FF8
000000000FF8
000000000FF8
000000000FF8
000000000FF8
000000000FF8
000000000FF8
000000000FF8
000000000FF8
000000000FF8
000000000FF8
000000000FF8
000000000FF8
000000001FF8
000000007FF8
3FFFFFFFFFF0
7FFFFFFFFFF0
FFFFFFFFFFE0
FFFFFFFFFFC0
FFFFFFFFFFC0
FFFFFFFFFF80
FFFFFFFFFE00
7FFFFFFFFC00
3FFFFFFFE000
ENDCHAR
STARTCHAR 003A
ENCODING 58
SWIDTH 572 0
DWIDTH 55 0
BBX 18 55 14 0
BITMAP
1FFE00
7FFF80
FFFF80
FFFFC0
FFFFC0
FFFFC0
FFFFC0
FFFFC0
FFFFC0
FFFFC0
FFFFC0
FFFFC0
FFFFC0
FFFFC0
FFFFC0
FFFFC0
7FFF80
3FFF00
000000
000000
000000
000000
000000
000000
000000
000000
000000
000000
000000
000000
000000
000000
000000
000000
000000
000000
000000
3FFF00
7FFF80
FFFFC0
FFFFC0
FFFFC0
FFFFC0
FFFFC0
FFFFC0
FFFFC0
FFFFC0
FFFFC0
FFFFC0
FFFFC0
FFFFC0
FFFFC0
FFFF80
7FFF80
3FFE00
ENDCHAR
STARTCHAR 003B
ENCODING 59
SWIDTH 572 0
DWIDTH 55 0
BBX 18 64 14 -10
BITMAP
1FFE00
7FFF80
FFFF80
FFFFC0
FFFFC0
FFFFC0
FFFFC0
FFFFC0
FFFFC0
FFFFC0
FFFFC0
FFFFC0
FFFFC0
FFFFC0
FFFFC0
FFFFC0
7FFF80
3FFF00
000000
000000
000000
000000
000000
000000
000000
000000
000000
000000
000000
000000
000000
000000
000000
000000
000000
000000
000000
3FFF00
7FFF80
FFFFC0
FFFFC0
FFFFC0
FFFFC0
FFFFC0
FFFFC0
FFFFC0
FFFFC0
FFFFC0
FFFFC0
FFFFC0
FFFFC0
FFFFC0
FFFF80
FFFF80
FFFF00
FFFE00
FFFC00
FFF800
FFF000
FFE000
FFC000
FF8000
7F0000
3E0000
ENDCHAR
STARTCHAR 003C
ENCODING 60
SWIDTH 572 0
DWIDTH 55 0
BBX 36 64 5 0
BITMAP
00000003C0
0000000FE0
0000001FF0
0000003FF0
0000007FF0
000000FFF0
000001FFF0
000003FFE0
000007FFC0
00000FFF80
00001FFF00
00003FFE00
00007FFC00
0000FFF800
0001FFF000
0003FFE000
0007FFC000
000FFF8000
001FFF0000
003FFE0000
007FFC0000
00FFF80000
01FFF00000
03FFE00000
07FFC00000
0FFF800000
1FFF000000
3FFE000000
7FFC000000
FFF8000000
FFF0000000
FFE0000000
FFE0000000
FFF0000000
FFF8000000
7FFC000000
3FFE000000
1FFF000000
0FFF800000
07FFC00000
03FFE00000
01FFF00000
00FFF80000
007FFC0000
003FFE0000
001FFF0000
000FFF8000
0007FFC000
0003FFE000
0001FFF000
0000FFF800
00007FFC00
00003FFE00
00001FFF00
00000FFF80
000007FFC0
000003FFE0
000001FFF0
000000FFF0
0000007FF0
0000003FF0
0000001FF0
0000000FE0
00000003C0
ENDCHAR
STARTCHAR 003D
ENCODING 61
SWIDTH 572 0
DWIDTH 55 0
BBX 45 28 5 18
BITMAP
1FFFFFFFFFC0
7FFFFFFFFFF0
FFFFFFFFFFF8
FFFFFFFFFFF8
FFFFFFFFFFF8
FFFFFFFFFFF8
FFFFFFFFFFF8
FFFFFFFFFFF0
7FFFFFFFFFE0
000000000000
000000000000
000000000000
000000000000
000000000000
000000000000
000000000000
000000000000
000000000000
000000000000
7FFFFFFFFFE0
FFFFFFFFFFF0
FFFFFFFFFFF8
FFFFFFFFFFF8
FFFFFFFFFFF8
FFFFFFFFFFF8
FFFFFFFFFFF8
7FFFFFFFFFF0
1FFFFFFFFFC0
ENDCHAR
STARTCHAR 003E
ENCODING 62
SWIDTH 572 0
DWIDTH 55 0
BBX 36 64 14 0
BITMAP
3C00000000
7F00000000
FF80000000
FFC0000000
FFE0000000
FFF0000000
FFF8000000
7FFC000000
3FFE000000
1FFF000000
0FFF800000
07FFC00000
03FFE00000
01FFF00000
00FFF80000
007FFC0000
003FFE0000
001FFF0000
000FFF8000
0007FFC000
0003FFE000
0001FFF000
0000FFF800
00007FFC00
00003FFE00
00001FFF00
00000FFF80
000007FFC0
000003FFE0
000001FFE0
000000FFF0
0000007FF0
0000007FF0
000000FFF0
000001FFF0
000003FFE0
000007FFC0
00000FFF80
00001FFF00
00003FFE00
00007FFC00
0000FFF800
0001FFF000
0003FFE000
0007FFC000
000FFF8000
001FFF0000
003FFE0000
007FFC0000
00FFF80000
01FFF00000
03FFE00000
07FFC00000
0FFF800000
1FFF000000
3FFE000000
7FFC000000
FFF8000000
FFF0000000
FFE0000000
FFC0000000
FF80000000
7F00000000
3C00000000
ENDCHAR
STARTCHAR 003F
ENCODING 63
SWIDTH 572 0
DWIDTH 55 0
BBX 45 64 5 0
BITMAP
003FFFFFE000
01FFFFFFFC00
03FFFFFFFE00
0FFFFFFFFF00
1FFFFFFFFFC0
3FFFFFFFFFC0
3FFFFFFFFFE0
7FFFFFFFFFF0
7FFFFFFFFFF0
FFF000007FF8
FFC000001FF8
FF8000000FF8
FF8000000FF8
FF8000000FF8
FF8000000FF8
FF0000000FF8
7F0000000FF8
3E0000000FF8
000000000FF8
000000000FF8
000000000FF8
000000001FF8
000000003FF8
000000007FF8
00000000FFF8
00000000FFF0
00000001FFE0
00000003FFC0
00000007FF80
0000000FFF00
0000001FFE00
0000003FFC00
0000007FF800
000000FFF000
000001FFE000
000003FFC000
000007FF8000
00000FFF0000
00001FFE0000
00003FFC0000
00003FF80000
00003FF00000
00003FE00000
00001FC00000
00001F800000
000007000000
000000000000
000000000000
000000000000
000000000000
000000000000
000000000000
000000000000
000000000000
000000000000
00000F800000
00001FC00000
00003FE00000
00003FE00000
00003FE00000
00003FE00000
00003FC00000
00001FC00000
00000F000000
ENDCHAR
STARTCHAR 0040
ENCODING 64
SWIDTH 572 0
DWIDTH 55 0
BBX 45 64 5 0
BITMAP
003FFFFFE000
01FFFFFFFC00
03FFFFFFFE00
0FFFFFFFFF00
1FFFFFFFFFC0
3FFFFFFFFFC0
3FFFFFFFFFE0
7FFFFFFFFFF0
7FFFFFFFFFF0
FFF000007FF8
FFC000001FF8
FF8000000FF8
FF8000000FF8
FF8000000FF8
FF8000000FF8
FF8000000FF8
FF8000000FF8
FF8000000FF8
FF800007FFF8
FF80003FFFF8
FF8000FFFFF8
FF8001FFFFF8
FF8003FFFFF8
FF8007FFFFF8
FF800FFFFFF8
FF800FFFFFF8
FF801FFFFFF8
FF801FFEFFF8
FF803FF83FF8
FF803FF01FF8
FF803FE00FF8
FF803FE00FF8
FF803FE00FF8
FF803FE00FF8
FF803FF01FF8
FF803FF83FF8
FF801FFEFFF8
FF801FFFFFF0
FF800FFFFFF0
FF800FFFFFE0
FF8007FFFFC0
FF8003FFFF80
FF8001FFFF00
FF8000FFFE00
FF80003FF800
FF800007C000
FF8000000000
FF8000000000
FF8000000000
FF8000000000
FF8000000000
FF8000000000
FF8000000000
FFC000000000
FFF000000000
7FFFFFFFFFE0
7FFFFFFFFFF0
3FFFFFFFFFF8
3FFFFFFFFFF8
1FFFFFFFFFF8
0FFFFFFFFFF8
03FFFFFFFFF8
01FFFFFFFFF0
003FFFFFFFE0
ENDCHAR
STARTCHAR 0041
ENCODING 65
SWIDTH 572 0
DWIDTH 55 0
BBX 45 64 5 0
BITMAP
003FFFFFE000
01FFFFFFFC00
03FFFFFFFE00
0FFFFFFFFF00
1FFFFFFFFFC0
3FFFFFFFFFC0
3FFFFFFFFFE0
7FFFFFFFFFF0
7FFFFFFFFFF0
FFF000007FF8
FFC000001FF8
FF8000000FF8
FF8000000FF8
FF8000000FF8
FF8000000FF8
FF8000000FF8
FF8000000FF8
FF8000000FF8
FF8000000FF8
FF8000000FF8
FF8000000FF8
FF8000000FF8
FF8000000FF8
FF8000000FF8
FF8000000FF8
FF8000000FF8
FF8000000FF8
FFFFFFFFFFF8
FFFFFFFFFFF8
FFFFFFFFFFF8
FFFFFFFFFFF8
FFFFFFFFFFF8
FFFFFFFFFFF8
FFFFFFFFFFF8
FFFFFFFFFFF8
FFFFFFFFFFF8
FFFFFFFFFFF8
FF8000000FF8
FF8000000FF8
FF8000000FF8
FF8000000FF8
FF8000000FF8
FF8000000FF8
FF8000000FF8
FF8000000FF8
FF8000000FF8
FF8000000FF8
FF8000000FF8
FF8000000FF8
FF8000000FF8
FF8000000FF8
FF8000000FF8
FF8000000FF8
FF8000000FF8
FF8000000FF8
FF8000000FF8
FF8000000FF8
FF8000000FF8
FF8000000FF8
FF8000000FF8
FF8000000FF8
FF00000007F8
7E00000007F0
3C00000001E0
ENDCHAR
STARTCHAR 0042
ENCODING 66
SWIDTH 572 0
DWIDTH 55 0
BBX 45 64 5 0
BITMAP
3FFFFFFFE000
7FFFFFFFFC00
FFFFFFFFFE00
FFFFFFFFFF00
FFFFFFFFFFC0
FFFFFFFFFFC0
FFFFFFFFFFE0
FFFFFFFFFFF0
FFFFFFFFFFF0
FF8000007FF8
FF8000001FF8
FF8000000FF8
FF8000000FF8
FF8000000FF8
FF8000000FF8
FF8000000FF8
FF8000000FF8
FF8000000FF8
FF8000000FF8
FF8000000FF8
FF8000000FF8
FF8000000FF8
FF8000000FF8
FF8000000FF8
FF8000000FF8
FF8000001FF8
FF8000003FF8
FFFFFFFFFFF0
FFFFFFFFFFF0
FFFFFFFFFFE0
FFFFFFFFFFE0
FFFFFFFFFFC0
FFFFFFFFFF80
FFFFFFFFFFC0
FFFFFFFFFFE0
FFFFFFFFFFF0
FFFFFFFFFFF0
FF8000003FF8
FF8000001FF8
FF8000000FF8
FF8000000FF8
FF8000000FF8
FF8000000FF8
FF8000000FF8
FF8000000FF8
FF8000000FF8
FF8000000FF8
FF8000000FF8
FF8000000FF8
FF8000000FF8
FF8000000FF8
FF8000000FF8
FF8000000FF8
FF8000001FF8
FF8000007FF8
FFFFFFFFFFF0
FFFFFFFFFFF0
FFFFFFFFFFE0
FFFFFFFFFFC0
FFFFFFFFFFC0
FFFFFFFFFF80
FFFFFFFFFE00
7FFFFFFFFC00
3FFFFFFFE000
ENDCHAR
STARTCHAR 0043
ENCODING 67
SWIDTH 572 0
DWIDTH 55 0
BBX 45 64 5 0
BITMAP
003FFFFFE000
01FFFFFFFC00
03FFFFFFFE00
0FFFFFFFFF00
1FFFFFFFFFC0
3FFFFFFFFFC0
3FFFFFFFFFE0
7FFFFFFFFFF0
7FFFFFFFFFF0
FFF000007FF8
FFC000001FF8
FF8000000FF8
FF8000000FF8
FF8000000FF8
FF8000000FF8
FF80000007F8
FF80000007F0
FF80000003E0
FF8000000000
FF8000000000
FF8000000000
FF8000000000
FF8000000000
FF8000000000
FF8000000000
FF8000000000
FF8000000000
FF8000000000
FF8000000000
FF8000000000
FF8000000000
FF8000000000
FF8000000000
FF8000000000
FF8000000000
FF8000000000
FF8000000000
FF8000000000
FF8000000000
FF8000000000
FF8000000000
FF8000000000
FF8000000000
FF8000000000
FF8000000000
FF8000000000
FF80000003E0
FF80000007F0
FF80000007F8
FF8000000FF8
FF8000000FF8
FF8000000FF8
FF8000000FF8
FFC000001FF8
FFF000007FF8
7FFFFFFFFFF0
7FFFFFFFFFF0
3FFFFFFFFFE0
3FFFFFFFFFC0
1FFFFFFFFFC0
0FFFFFFFFF80
03FFFFFFFE00
01FFFFFFFC00
003FFFFFE000
ENDCHAR
STARTCHAR 0044
ENCODING 68
SWIDTH 572 0
DWIDTH 55 0
BBX 45 64 5 0
BITMAP
3FFFFFFFE000
7FFFFFFFFC00
FFFFFFFFFE00
FFFFFFFFFF00
FFFFFFFFFFC0
FFFFFFFFFFC0
FFFFFFFFFFE0
FFFFFFFFFFF0
FFFFFFFFFFF0
FF8000007FF8
FF8000001FF8
FF8000000FF8
FF8000000FF8
FF8000000FF8
FF8000000FF8
FF8000000FF8
FF8000000FF8
FF8000000FF8
FF8000000FF8
FF8000000FF8
FF8000000FF8
FF8000000FF8
FF8000000FF8
FF8000000FF8
FF8000000FF8
FF8000000FF8
FF8000000FF8
FF8000000FF8
FF8000000FF8
FF8000000FF8
FF8000000FF8
FF8000000FF8
FF8000000FF8
FF8000000FF8
FF8000000FF8
FF8000000FF8
FF8000000FF8
FF8000000FF8
FF8000000FF8
FF8000000FF8
FF8000000FF8
FF8000000FF8
FF8000000FF8
FF8000000FF8
FF8000000FF8
FF8000000FF8
FF8000000FF8
FF8000000FF8
FF8000000FF8
FF8000000FF8
FF8000000FF8
FF8000000FF8
FF8000000FF8
FF8000001FF8
FF8000007FF8
FFFFFFFFFFF0
FFFFFFFFFFF0
FFFFFFFFFFE0
FFFFFFFFFFC0
FFFFFFFFFFC0
FFFFFFFFFF80
FFFFFFFFFE00
7FFFFFFFFC00
3FFFFFFFE000
ENDCHAR
STARTCHAR 0045
ENCODING 69
SWIDTH 572 0
DWIDTH 55 0
BBX 45 64 5 0
BITMAP
3FFFFFFFFFE0
7FFFFFFFFFF0
FFFFFFFFFFF8
FFFFFFFFFFF8
FFFFFFFFFFF8
FFFFFFFFFFF8
FFFFFFFFFFF8
FFFFFFFFFFF0
FFFFFFFFFFE0
FF8000000000
FF8000000000
FF8000000000
FF8000000000
FF8000000000
FF8000000000
FF8000000000
FF8000000000
FF8000000000
FF8000000000
FF8000000000
FF8000000000
FF8000000000
FF8000000000
FF8000000000
FF8000000000
FF8000000000
FF8000000000
FFFFFFFF0000
FFFFFFFFC000
FFFFFFFFE000
FFFFFFFFF000
FFFFFFFFF000
FFFFFFFFF000
FFFFFFFFF000
FFFFFFFFE000
FFFFFFFFC000
FFFFFFFF0000
FF8000000000
FF8000000000
FF8000000000
FF8000000000
FF8000000000
FF8000000000
FF8000000000
FF8000000000
FF8000000000
FF8000000000
FF8000000000
FF8000000000
FF8000000000
FF8000000000
FF8000000000
FF8000000000
FF8000000000
FF8000000000
FFFFFFFFFFE0
FFFFFFFFFFF0
FFFFFFFFFFF8
FFFFFFFFFFF8
FFFFFFFFFFF8
FFFFFFFFFFF8
FFFFFFFFFFF8
7FFFFFFFFFF0
3FFFFFFFFFE0
ENDCHAR
STARTCHAR 0046
ENCODING 70
SWIDTH 572 0
DWIDTH 55 0
BBX 45 64 5 0
BITMAP
3FFFFFFFFFE0
7FFFFFFFFFF0
FFFFFFFFFFF8
FFFFFFFFFFF8
FFFFFFFFFFF8
FFFFFFFFFFF8
FFFFFFFFFFF8
FFFFFFFFFFF0
FFFFFFFFFFE0
FF8000000000
FF8000000000
FF8000000000
FF8000000000
FF8000000000
FF8000000000
FF8000000000
FF8000000000
FF8000000000
FF8000000000
FF8000000000
FF8000000000
FF8000000000
FF8000000000
FF8000000000
FF8000000000
FF8000000000
FF8000000000
FFFFFFFF0000
FFFFFFFFC000
FFFFFFFFE000
FFFFFFFFF000
FFFFFFFFF000
FFFFFFFFF000
FFFFFFFFF000
FFFFFFFFE000
FFFFFFFFC000
FFFFFFFF0000
FF8000000000
FF8000000000
FF8000000000
FF8000000000
FF8000000000
FF8000000000
FF8000000000
FF8000000000
FF8000000000
FF8000000000
FF8000000000
FF8000000000
FF8000000000
FF8000000000
FF8000000000
FF8000000000
FF8000000000
FF8000000000
FF8000000000
FF8000000000
FF8000000000
FF8000000000
FF0000000000
FF0000000000
FF0000000000
7E0000000000
3C0000000000
ENDCHAR
STARTCHAR 0047
ENCODING 71
SWIDTH 572 0
DWIDTH 55 0
BBX 45 64 5 0
BITMAP
003FFFFFE000
01FFFFFFFC00
03FFFFFFFE00
0FFFFFFFFF00
1FFFFFFFFFC0
3FFFFFFFFFC0
3FFFFFFFFFE0
7FFFFFFFFFF0
7FFFFFFFFFF0
FFF000007FF8
FFC000001FF8
FF8000000FF8
FF8000000FF8
FF8000000FF8
FF8000000FF8
FF80000007F8
FF80000007F0
FF80000003E0
FF8000000000
FF8000000000
FF8000000000
FF8000000000
FF8000000000
FF8000000000
FF8000000000
FF8000000000
FF8000000000
FF800001FF80
FF800007FFF0
FF80000FFFF0
FF80001FFFF8
FF80001FFFF8
FF80001FFFF8
FF80001FFFF8
FF80000FFFF8
FF800007FFF8
FF800001FFF8
FF8000000FF8
FF8000000FF8
FF8000000FF8
FF8000000FF8
FF8000000FF8
FF8000000FF8
FF8000000FF8
FF8000000FF8
FF8000000FF8
FF8000000FF8
FF8000000FF8
FF8000000FF8
FF8000000FF8
FF8000000FF8
FF8000000FF8
FF8000000FF8
FFC000001FF8
FFF000007FF8
7FFFFFFFFFF0
7FFFFFFFFFF0
3FFFFFFFFFE0
3FFFFFFFFFC0
1FFFFFFFFFC0
0FFFFFFFFF80
03FFFFFFFE00
01FFFFFFFC00
003FFFFFE000
ENDCHAR
STARTCHAR 0048
ENCODING 72
SWIDTH 572 0
DWIDTH 55 0
BBX 45 64 5 0
BITMAP
3C00000001E0
7E00000007F0
FF00000007F8
FF8000000FF8
FF8000000FF8
FF8000000FF8
FF8000000FF8
FF8000000FF8
FF8000000FF8
FF8000000FF8
FF8000000FF8
FF8000000FF8
FF8000000FF8
FF8000000FF8
FF8000000FF8
FF8000000FF8
FF8000000FF8
FF8000000FF8
FF8000000FF8
FF8000000FF8
FF8000000FF8
FF8000000FF8
FF8000000FF8
FF8000000FF8
FF8000000FF8
FF8000000FF8
FF8000000FF8
FFFFFFFFFFF8
FFFFFFFFFFF8
FFFFFFFFFFF8
FFFFFFFFFFF8
FFFFFFFFFFF8
FFFFFFFFFFF8
FFFFFFFFFFF8
FFFFFFFFFFF8
FFFFFFFFFFF8
FFFFFFFFFFF8
FF8000000FF8
FF8000000FF8
FF8000000FF8
FF8000000FF8
FF8000000FF8
FF8000000FF8
FF8000000FF8
FF8000000FF8
FF8000000FF8
FF8000000FF8
FF8000000FF8
FF8000000FF8
FF8000000FF8
FF8000000FF8
FF8000000FF8
FF8000000FF8
FF8000000FF8
FF8000000FF8
FF8000000FF8
FF8000000FF8
FF8000000FF8
FF8000000FF8
FF8000000FF8
FF8000000FF8
FF00000007F8
7E00000007F0
3C00000001E0
ENDCHAR
STARTCHAR 0049
ENCODING 73
SWIDTH 572 0
DWIDTH 55 0
BBX 27 64 14 0
BITMAP
3FFFFF80
7FFFFFC0
FFFFFFE0
FFFFFFE0
FFFFFFE0
FFFFFFE0
FFFFFFE0
7FFFFFC0
3FFFFF80
007FC000
007FC000
007FC000
007FC000
007FC000
007FC000
007FC000
007FC000
007FC000
007FC000
007FC000
007FC000
007FC000
007FC000
007FC000
007FC000
007FC000
007FC000
007FC000
007FC000
007FC000
007FC000
007FC000
007FC000
007FC000
007FC000
007FC000
007FC000
007FC000
007FC000
007FC000
007FC000
007FC000
007FC000
007FC000
007FC000
007FC000
007FC000
007FC000
007FC000
007FC000
007FC000
007FC000
007FC000
007FC000
007FC000
3FFFFF80
7FFFFFC0
FFFFFFE0
FFFFFFE0
FFFFFFE0
FFFFFFE0
FFFFFFE0
7FFFFFC0
3FFFFF80
ENDCHAR
STARTCHAR 004A
ENCODING 74
SWIDTH 572 0
DWIDTH 55 0
BBX 45 64 5 0
BITMAP
0000000001E0
0000000007F0
0000000007F8
000000000FF8
000000000FF8
000000000FF8
000000000FF8
000000000FF8
000000000FF8
000000000FF8
000000000FF8
000000000FF8
000000000FF8
000000000FF8
000000000FF8
000000000FF8
000000000FF8
000000000FF8
000000000FF8
000000000FF8
000000000FF8
000000000FF8
000000000FF8
000000000FF8
000000000FF8
000000000FF8
000000000FF8
000000000FF8
000000000FF8
000000000FF8
000000000FF8
000000000FF8
000000000FF8
000000000FF8
000000000FF8
000000000FF8
000000000FF8
000000000FF8
000000000FF8
000000000FF8
000000000FF8
000000000FF8
000000000FF8
000000000FF8
000000000FF8
000000000FF8
3E0000000FF8
7F0000000FF8
FF0000000FF8
FF8000000FF8
FF8000000FF8
FF8000000FF8
FF8000000FF8
FFC000001FF8
FFF000007FF8
7FFFFFFFFFF0
7FFFFFFFFFF0
3FFFFFFFFFE0
3FFFFFFFFFC0
1FFFFFFFFFC0
0FFFFFFFFF80
03FFFFFFFE00
01FFFFFFFC00
003FFFFFE000
ENDCHAR
STARTCHAR 004B
ENCODING 75
SWIDTH 572 0
DWIDTH 55 0
BBX 45 64 5 0
BITMAP
3C00000001E0
7E00000007F0
FF0000000FF8
FF8000001FF8
FF8000003FF8
FF8000007FF8
FF800000FFF8
FF800001FFF0
FF800003FFE0
FF800007FFC0
FF80000FFF80
FF80001FFF00
FF80003FFE00
FF80007FFC00
FF8000FFF800
FF8001FFF000
FF8003FFE000
FF8007FFC000
FF800FFF8000
FF801FFF0000
FF803FFE0000
FF807FFC0000
FF80FFF80000
FF81FFF00000
FF83FFE00000
FF87FFC00000
FF8FFF800000
FF9FFF000000
FFBFFE000000
FFFFFC000000
FFFFF8000000
FFFFF0000000
FFFFF0000000
FFFFF8000000
FFFFFC000000
FFFFFE000000
FFFFFF000000
FFFFFF800000
FFFBFFC00000
FFF1FFE00000
FFE0FFF00000
FFC07FF80000
FF803FFC0000
FF801FFE0000
FF800FFF0000
FF8007FF8000
FF8003FFC000
FF8001FFE000
FF8000FFF000
FF8000FFF800
FF80007FFC00
FF80003FFE00
FF80001FFF00
FF80000FFF80
FF800007FFC0
FF800003FFE0
FF800001FFF0
FF800000FFF8
FF8000007FF8
FF8000003FF8
FF8000001FF8
FF0000000FF8
7E00000007F0
3C00000001E0
ENDCHAR
STARTCHAR 004C
ENCODING 76
SWIDTH 572 0
DWIDTH 55 0
BBX 45 64 5 0
BITMAP
3C0000000000
7E0000000000
FF0000000000
FF8000000000
FF8000000000
FF8000000000
FF8000000000
FF8000000000
FF8000000000
FF8000000000
FF8000000000
FF8000000000
FF8000000000
FF8000000000
FF8000000000
FF8000000000
FF8000000000
FF8000000000
FF8000000000
FF8000000000
FF8000000000
FF8000000000
FF8000000000
FF8000000000
FF8000000000
FF8000000000
FF8000000000
FF8000000000
FF8000000000
FF8000000000
FF8000000000
FF8000000000
FF8000000000
FF8000000000
FF8000000000
FF8000000000
FF8000000000
FF8000000000
FF8000000000
FF8000000000
FF8000000000
FF8000000000
FF8000000000
FF8000000000
FF8000000000
FF8000000000
FF8000000000
FF8000000000
FF8000000000
FF8000000000
FF8000000000
FF8000000000
FF8000000000
FF8000000000
FF8000000000
FFFFFFFFFFE0
FFFFFFFFFFF0
FFFFFFFFFFF8
FFFFFFFFFFF8
FFFFFFFFFFF8
FFFFFFFFFFF8
FFFFFFFFFFF8
7FFFFFFFFFF0
3FFFFFFFFFE0
ENDCHAR
STARTCHAR 004D
ENCODING 77
SWIDTH 572 0
DWIDTH 55 0
BBX 45 64 5 0
BITMAP
3C00000001E0
7E00000007F0
FF0000000FF8
FF8000001FF8
FFC000003FF8
FFE000007FF8
FFF00000FFF8
FFF80001FFF8
FFFC0003FFF8
FFFE0007FFF8
FFFF000FFFF8
FFFF801FFFF8
FFFFC03FFFF8
FFFFE07FFFF8
FFFFF0FFFFF8
FFFFF9FFFFF8
FFBFFFFFEFF8
FF9FFFFFCFF8
FF8FFFFF8FF8
FF87FFFF0FF8
FF83FFFE0FF8
FF81FFFC0FF8
FF80FFF80FF8
FF807FF00FF8
FF803FE00FF8
FF801FC00FF8
FF800F800FF8
FF8000000FF8
FF8000000FF8
FF8000000FF8
FF8000000FF8
FF8000000FF8
FF8000000FF8
FF8000000FF8
FF8000000FF8
FF8000000FF8
FF8000000FF8
FF8000000FF8
FF8000000FF8
FF8000000FF8
FF8000000FF8
FF8000000FF8
FF8000000FF8
FF8000000FF8
FF8000000FF8
FF8000000FF8
FF8000000FF8
FF8000000FF8
FF8000000FF8
FF8000000FF8
FF8000000FF8
FF8000000FF8
FF8000000FF8
FF8000000FF8
FF8000000FF8
FF8000000FF8
FF8000000FF8
FF8000000FF8
FF8000000FF8
FF8000000FF8
FF8000000FF8
FF00000007F8
7E00000007F0
3C00000001E0
ENDCHAR
STARTCHAR 004E
ENCODING 78
SWIDTH 572 0
DWIDTH 55 0
BBX 45 64 5 0
BITMAP
3C00000001E0
7E00000007F0
FF00000007F8
FF8000000FF8
FFC000000FF8
FFE000000FF8
FFF000000FF8
FFF800000FF8
FFFC00000FF8
FFFE00000FF8
FFFF00000FF8
FFFF80000FF8
FFFFC0000FF8
FFFFE0000FF8
FFFFF0000FF8
FFFFF8000FF8
FFBFFC000FF8
FF9FFE000FF8
FF8FFF000FF8
FF87FF800FF8
FF83FFC00FF8
FF81FFE00FF8
FF80FFF00FF8
FF807FF80FF8
FF803FFC0FF8
FF801FFE0FF8
FF800FFF0FF8
FF8007FF8FF8
FF8003FFCFF8
FF8001FFEFF8
FF8000FFFFF8
FF80007FFFF8
FF80003FFFF8
FF80001FFFF8
FF80000FFFF8
FF800007FFF8
FF800003FFF8
FF800001FFF8
FF800000FFF8
FF8000007FF8
FF8000003FF8
FF8000001FF8
FF8000000FF8
FF8000000FF8
FF8000000FF8
FF8000000FF8
FF8000000FF8
FF8000000FF8
FF8000000FF8
FF8000000FF8
FF8000000FF8
FF8000000FF8
FF8000000FF8
FF8000000FF8
FF8000000FF8
FF8000000FF8
FF8000000FF8
FF8000000FF8
FF8000000FF8
FF8000000FF8
FF8000000FF8
FF00000007F8
7E00000007F0
3C00000001E0
ENDCHAR
STARTCHAR 004F
ENCODING 79
SWIDTH 572 0
DWIDTH 55 0
BBX 45 64 5 0
BITMAP
003FFFFFE000
01FFFFFFFC00
03FFFFFFFE00
0FFFFFFFFF00
1FFFFFFFFFC0
3FFFFFFFFFC0
3FFFFFFFFFE0
7FFFFFFFFFF0
7FFFFFFFFFF0
FFF000007FF8
FFC000001FF8
FF8000000FF8
FF8000000FF8
FF8000000FF8
FF8000000FF8
FF8000000FF8
FF8000000FF8
FF8000000FF8
FF8000000FF8
FF8000000FF8
FF8000000FF8
FF8000000FF8
FF8000000FF8
FF8000000FF8
FF8000000FF8
FF8000000FF8
FF8000000FF8
FF8000000FF8
FF8000000FF8
FF8000000FF8
FF8000000FF8
FF8000000FF8
FF8000000FF8
FF8000000FF8
FF8000000FF8
FF8000000FF8
FF8000000FF8
FF8000000FF8
FF8000000FF8
FF8000000FF8
FF8000000FF8
FF8000000FF8
FF8000000FF8
FF8000000FF8
FF8000000FF8
FF8000000FF8
FF8000000FF8
FF8000000FF8
FF8000000FF8
FF8000000FF8
FF8000000FF8
FF8000000FF8
FF8000000FF8
FFC000001FF8
FFF000007FF8
7FFFFFFFFFF0
7FFFFFFFFFF0
3FFFFFFFFFE0
3FFFFFFFFFC0
1FFFFFFFFFC0
0FFFFFFFFF80
03FFFFFFFE00
01FFFFFFFC00
003FFFFFE000
ENDCHAR
STARTCHAR 0050
ENCODING 80
SWIDTH 572 0
DWIDTH 55 0
BBX 45 64 5 0
BITMAP
3FFFFFFFE000
7FFFFFFFFC00
FFFFFFFFFE00
FFFFFFFFFF00
FFFFFFFFFFC0
FFFFFFFFFFC0
FFFFFFFFFFE0
FFFFFFFFFFF0
FFFFFFFFFFF0
FF8000007FF8
FF8000001FF8
FF8000000FF8
FF8000000FF8
FF8000000FF8
FF8000000FF8
FF8000000FF8
FF8000000FF8
FF8000000FF8
FF8000000FF8
FF8000000FF8
FF8000000FF8
FF8000000FF8
FF8000000FF8
FF8000000FF8
FF8000000FF8
FF8000001FF8
FF8000003FF8
FFFFFFFFFFF0
FFFFFFFFFFF0
FFFFFFFFFFE0
FFFFFFFFFFE0
FFFFFFFFFFC0
FFFFFFFFFF80
FFFFFFFFFF00
FFFFFFFFFE00
FFFFFFFFF800
FFFFFFFF0000
FF8000000000
FF8000000000
FF8000000000
FF8000000000
FF8000000000
FF8000000000
FF8000000000
FF8000000000
FF8000000000
FF8000000000
FF8000000000
FF8000000000
FF8000000000
FF8000000000
FF8000000000
FF8000000000
FF8000000000
FF8000000000
FF8000000000
FF8000000000
FF8000000000
FF8000000000
FF8000000000
FF8000000000
FF0000000000
7E0000000000
3C0000000000
ENDCHAR
STARTCHAR 0051
ENCODING 81
SWIDTH 572 0
DWIDTH 55 0
BBX 45 64 5 0
BITMAP
003FFFFFE000
01FFFFFFFC00
03FFFFFFFE00
0FFFFFFFFF00
1FFFFFFFFFC0
3FFFFFFFFFC0
3FFFFFFFFFE0
7FFFFFFFFFF0
7FFFFFFFFFF0
FFF000007FF8
FFC000001FF8
FF8000000FF8
FF8000000FF8
FF8000000FF8
FF8000000FF8
FF8000000FF8
FF8000000FF8
FF8000000FF8
FF8000000FF8
FF8000000FF8
FF8000000FF8
FF8000000FF8
FF8000000FF8
FF8000000FF8
FF8000000FF8
FF8000000FF8
FF8000000FF8
FF8000000FF8
FF8000000FF8
FF8000000FF8
FF8000000FF8
FF8000000FF8
FF8000000FF8
FF8000000FF8
FF8000000FF8
FF8000000FF8
FF8000000FF8
FF800F801FF8
FF801FC03FF8
FF803FE07FF8
FF803FF0FFF8
FF803FF9FFF8
FF803FFFFFF8
FF801FFFFFF8
FF801FFFFFF0
FF800FFFFFE0
FF8007FFFFC0
FF8003FFFF80
FF8001FFFF00
FF8000FFFE00
FF80007FFC00
FF8000FFFE00
FF8001FFFF00
FFC003FFFF80
FFF007FFFFC0
7FFFFFFFFFE0
7FFFFFFFFFF0
3FFFFFFEFFF8
3FFFFFFC7FF8
1FFFFFF83FF8
0FFFFFF01FF8
03FFFFE00FF8
01FFFFC007F0
003FFF0001E0
ENDCHAR
STARTCHAR 0052
ENCODING 82
SWIDTH 572 0
DWIDTH 55 0
BBX 45 64 5 0
BITMAP
3FFFFFFFE000
7FFFFFFFFC00
FFFFFFFFFE00
FFFFFFFFFF00
FFFFFFFFFFC0
FFFFFFFFFFC0
FFFFFFFFFFE0
FFFFFFFFFFF0
FFFFFFFFFFF0
FF8000007FF8
FF8000001FF8
FF8000000FF8
FF8000000FF8
FF8000000FF8
FF8000000FF8
FF8000000FF8
FF8000000FF8
FF8000000FF8
FF8000000FF8
FF8000000FF8
FF8000000FF8
FF8000000FF8
FF8000000FF8
FF8000000FF8
FF8000000FF8
FF8000001FF8
FF8000003FF8
FFFFFFFFFFF0
FFFFFFFFFFF0
FFFFFFFFFFE0
FFFFFFFFFFE0
FFFFFFFFFFC0
FFFFFFFFFF80
FFFFFFFFFFC0
FFFFFFFFFFE0
FFFFFFFFFFF0
FFFFFFFFFFF0
FF8000003FF8
FF8000001FF8
FF8000000FF8
FF8000000FF8
FF8000000FF8
FF8000000FF8
FF8000000FF8
FF8000000FF8
FF8000000FF8
FF8000000FF8
FF8000000FF8
FF8000000FF8
FF8000000FF8
FF8000000FF8
FF8000000FF8
FF8000000FF8
FF8000000FF8
FF8000000FF8
FF8000000FF8
FF8000000FF8
FF8000000FF8
FF8000000FF8
FF8000000FF8
FF8000000FF8
FF00000007F8
7E00000007F0
3C00000001E0
ENDCHAR
STARTCHAR 0053
ENCODING 83
SWIDTH 572 0
DWIDTH 55 0
BBX 45 64 5 0
BITMAP
007FFFFFE000
01FFFFFFFC00
07FFFFFFFE00
0FFFFFFFFF00
1FFFFFFFFFC0
3FFFFFFFFFC0
7FFFFFFFFFE0
7FFFFFFFFFF0
7FFFFFFFFFF0
FFF000007FF8
FFC000001FF8
FF8000000FF8
FF8000000FF8
FF8000000FF8
FF8000000FF8
FF80000007F8
FF80000007F0
FF80000003E0
FF8000000000
FF8000000000
FF8000000000
FF8000000000
FF8000000000
FF8000000000
FF8000000000
FFC000000000
FFE000000000
FFFFFFFF0000
FFFFFFFFF800
7FFFFFFFFE00
7FFFFFFFFF00
3FFFFFFFFF80
1FFFFFFFFFC0
0FFFFFFFFFE0
07FFFFFFFFE0
01FFFFFFFFF0
000FFFFFFFF0
000000003FF8
000000001FF8
000000000FF8
000000000FF8
000000000FF8
000000000FF8
000000000FF8
000000000FF8
000000000FF8
3E0000000FF8
7F0000000FF8
FF0000000FF8
FF8000000FF8
FF8000000FF8
FF8000000FF8
FF8000000FF8
FFC000001FF8
FFF000007FF8
7FFFFFFFFFF0
7FFFFFFFFFF0
3FFFFFFFFFF0
3FFFFFFFFFE0
1FFFFFFFFFC0
0FFFFFFFFF80
03FFFFFFFF00
01FFFFFFFC00
003FFFFFE000
ENDCHAR
STARTCHAR 0054
ENCODING 84
SWIDTH 572 0
DWIDTH 55 0
BBX 45 64 5 0
BITMAP
3FFFFFFFFFE0
7FFFFFFFFFF0
FFFFFFFFFFF8
FFFFFFFFFFF8
FFFFFFFFFFF8
FFFFFFFFFFF8
FFFFFFFFFFF8
7FFFFFFFFFF0
3FFFFFFFFFE0
00003FE00000
00003FE00000
00003FE00000
00003FE00000
00003FE00000
00003FE00000
00003FE00000
00003FE00000
00003FE00000
00003FE00000
00003FE00000
00003FE00000
00003FE00000
00003FE00000
00003FE00000
00003FE00000
00003FE00000
00003FE00000
00003FE00000
00003FE00000
00003FE00000
00003FE00000
00003FE00000
00003FE00000
00003FE00000
00003FE00000
00003FE00000
00003FE00000
00003FE00000
00003FE00000
00003FE00000
00003FE00000
00003FE00000
00003FE00000
00003FE00000
00003FE00000
00003FE00000
00003FE00000
00003FE00000
00003FE00000
00003FE00000
00003FE00000
00003FE00000
00003FE00000
00003FE00000
00003FE00000
00003FE00000
00003FE00000
00003FE00000
00003FE00000
00003FE00000
00003FE00000
00003FC00000
00001FC00000
00000F000000
ENDCHAR
STARTCHAR 0055
ENCODING 85
SWIDTH 572 0
DWIDTH 55 0
BBX 45 64 5 0
BITMAP
3C00000001E0
7E00000007F0
FF00000007F8
FF8000000FF8
FF8000000FF8
FF8000000FF8
FF8000000FF8
FF8000000FF8
FF8000000FF8
FF8000000FF8
FF8000000FF8
FF8000000FF8
FF8000000FF8
FF8000000FF8
FF8000000FF8
FF8000000FF8
FF8000000FF8
FF8000000FF8
FF8000000FF8
FF8000000FF8
FF8000000FF8
FF8000000FF8
FF8000000FF8
FF8000000FF8
FF8000000FF8
FF8000000FF8
FF8000000FF8
FF8000000FF8
FF8000000FF8
FF8000000FF8
FF8000000FF8
FF8000000FF8
FF8000000FF8
FF8000000FF8
FF8000000FF8
FF8000000FF8
FF8000000FF8
FF8000000FF8
FF8000000FF8
FF8000000FF8
FF8000000FF8
FF8000000FF8
FF8000000FF8
FF8000000FF8
FF8000000FF8
FF8000000FF8
FF8000000FF8
FF8000000FF8
FF8000000FF8
FF8000000FF8
FF8000000FF8
FF8000000FF8
FF8000000FF8
FFC000001FF8
FFF000007FF8
7FFFFFFFFFF0
7FFFFFFFFFF0
3FFFFFFFFFE0
3FFFFFFFFFC0
1FFFFFFFFFC0
0FFFFFFFFF80
03FFFFFFFE00
01FFFFFFFC00
003FFFFFE000
ENDCHAR
STARTCHAR 0056
ENCODING 86
SWIDTH 572 0
DWIDTH 55 0
BBX 45 64 5 0
BITMAP
3C00000001E0
7E00000007F0
FF00000007F8
FF8000000FF8
FF8000000FF8
FF8000000FF8
FF8000000FF8
FF8000000FF8
FF8000000FF8
FF8000000FF8
FF8000000FF8
FF8000000FF8
FF8000000FF8
FF8000000FF8
FF8000000FF8
FF8000000FF8
FF8000000FF8
FF8000000FF8
FF8000000FF8
FF8000000FF8
FF8000000FF8
FF8000000FF8
FF8000000FF8
FF8000000FF8
FF8000000FF8
FF8000000FF8
FF8000000FF8
FF8000000FF8
FF8000000FF8
FF8000000FF8
FF8000000FF8
FF8000000FF8
FF8000000FF8
FF8000000FF8
FF8000000FF8
FF8000000FF8
FF8000000FF8
FF8000001FF8
FFC000003FF8
FFE000007FF8
FFF00000FFF8
FFF80001FFF8
FFFC0003FFF8
FFFE0007FFF8
7FFF000FFFF0
3FFF801FFFE0
1FFFC03FFFC0
0FFFE07FFF80
07FFF0FFFF00
03FFF9FFFE00
01FFFFFFFC00
00FFFFFFF800
007FFFFFF000
003FFFFFE000
001FFFFFC000
000FFFFF8000
0007FFFF0000
0003FFFE0000
0001FFFC0000
0000FFF80000
00007FF00000
00003FE00000
00001FC00000
00000F000000
ENDCHAR
STARTCHAR 0057
ENCODING 87
SWIDTH 572 0
DWIDTH 55 0
BBX 45 64 5 0
BITMAP
3C00000001E0
7E00000007F0
FF00000007F8
FF8000000FF8
FF8000000FF8
FF8000000FF8
FF8000000FF8
FF8000000FF8
FF8000000FF8
FF8000000FF8
FF8000000FF8
FF8000000FF8
FF8000000FF8
FF8000000FF8
FF8000000FF8
FF8000000FF8
FF8000000FF8
FF8000000FF8
FF8000000FF8
FF8000000FF8
FF8000000FF8
FF8000000FF8
FF8000000FF8
FF8000000FF8
FF8000000FF8
FF8000000FF8
FF8000000FF8
FF8002000FF8
FF800F800FF8
FF801FC00FF8
FF803FE00FF8
FF803FE00FF8
FF803FE00FF8
FF803FE00FF8
FF803FE00FF8
FF803FE00FF8
FF803FE00FF8
FF803FE00FF8
FF803FE00FF8
FF803FE00FF8
FF803FE00FF8
FF803FE00FF8
FF803FE00FF8
FF803FE00FF8
FF803FE00FF8
FF803FE00FF8
FF803FE00FF8
FF803FE00FF8
FF803FE00FF8
FF803FE00FF8
FF803FE00FF8
FF803FE00FF8
FF807FF00FF8
FFC0FFF01FF8
FFF1FFFC7FF8
7FFFFFFFFFF0
7FFFFFFFFFF0
3FFFFFFFFFE0
3FFFFFFFFFC0
1FFFFFFFFFC0
0FFFF9FFFF80
03FFF0FFFE00
01FFE07FFC00
003F800FE000
ENDCHAR
STARTCHAR 0058
ENCODING 88
SWIDTH 572 0
DWIDTH 55 0
BBX 45 64 5 0
BITMAP
3C00000001E0
7E00000007F0
FF00000007F8
FF8000000FF8
FF8000000FF8
FF8000000FF8
FF8000000FF8
FF8000000FF8
FF8000000FF8
FF8000000FF8
FF8000000FF8
FF8000000FF8
FF8000000FF8
FFC000001FF8
FFE000003FF8
FFF000007FF8
7FF80000FFF0
3FFC0001FFE0
1FFE0003FFC0
0FFF0007FF80
07FF800FFF00
03FFC01FFE00
01FFE03FFC00
00FFF07FF800
007FF8FFF000
003FFDFFE000
001FFFFFC000
000FFFFF8000
0007FFFF0000
0003FFFE0000
0001FFFC0000
0000FFF80000
0000FFF80000
0001FFFC0000
0003FFFE0000
0007FFFF0000
000FFFFF8000
001FFFFFC000
003FFDFFE000
007FF8FFF000
00FFF07FF800
01FFE03FFC00
03FFC01FFE00
07FF800FFF00
0FFF0007FF80
1FFE0003FFC0
3FFC0001FFE0
7FF80000FFF0
FFF000007FF8
FFE000003FF8
FFC000001FF8
FF8000000FF8
FF8000000FF8
FF8000000FF8
FF8000000FF8
FF8000000FF8
FF8000000FF8
FF8000000FF8
FF8000000FF8
FF8000000FF8
FF8000000FF8
FF00000007F8
7E00000007F0
3C00000001E0
ENDCHAR
STARTCHAR 0059
ENCODING 89
SWIDTH 572 0
DWIDTH 55 0
BBX 45 64 5 0
BITMAP
3C00000001E0
7E00000007F0
FF00000007F8
FF8000000FF8
FF8000000FF8
FF8000000FF8
FF8000000FF8
FF8000000FF8
FF8000000FF8
FF8000000FF8
FF8000000FF8
FF8000000FF8
FF8000000FF8
FFC000001FF8
FFE000003FF8
FFF000007FF8
7FF80000FFF0
3FFC0001FFE0
1FFE0003FFC0
0FFF0007FF80
07FF800FFF00
03FFC01FFE00
01FFE03FFC00
00FFF07FF800
007FF8FFF000
003FFDFFE000
001FFFFFC000
000FFFFF8000
0007FFFF0000
0003FFFE0000
0001FFFC0000
0000FFF80000
00007FF00000
00003FE00000
00003FE00000
00003FE00000
00003FE00000
00003FE00000
00003FE00000
00003FE00000
00003FE00000
00003FE00000
00003FE00000
00003FE00000
00003FE00000
00003FE00000
00003FE00000
00003FE00000
00003FE00000
00003FE00000
00003FE00000
00003FE00000
00003FE00000
00003FE00000
00003FE00000
00003FE00000
00003FE00000
00003FE00000
00003FE00000
00003FE00000
00003FE00000
00003FC00000
00001FC00000
00000F000000
ENDCHAR
STARTCHAR 005A
ENCODING 90
SWIDTH 572 0
DWIDTH 55 0
BBX 45 64 5 0
BITMAP
3FFFFFFFFFE0
7FFFFFFFFFF0
FFFFFFFFFFF8
FFFFFFFFFFF8
FFFFFFFFFFF8
FFFFFFFFFFF8
FFFFFFFFFFF8
7FFFFFFFFFF8
3FFFFFFFFFF8
000000000FF8
000000000FF8
000000000FF8
000000001FF8
000000003FF8
000000007FF8
00000000FFF8
00000001FFF0
00000003FFE0
00000007FFC0
0000000FFF80
0000001FFF00
0000003FFE00
0000007FFC00
000000FFF800
000001FFF000
000003FFE000
000007FFC000
00000FFF8000
00001FFF0000
00003FFE0000
00007FFC0000
0000FFF80000
0001FFF00000
0003FFE00000
0007FFC00000
000FFF800000
001FFF000000
003FFE000000
007FFC000000
00FFF8000000
01FFF0000000
03FFE0000000
07FFC0000000
0FFF80000000
1FFF00000000
3FFE00000000
7FFC00000000
7FF800000000
FFF000000000
FFE000000000
FFC000000000
FF8000000000
FF8000000000
FF8000000000
FF8000000000
FFFFFFFFFFE0
FFFFFFFFFFF0
FFFFFFFFFFF8
FFFFFFFFFFF8
FFFFFFFFFFF8
FFFFFFFFFFF8
FFFFFFFFFFF8
7FFFFFFFFFF0
3FFFFFFFFFE0
ENDCHAR
STARTCHAR 005B
ENCODING 91
SWIDTH 572 0
DWIDTH 55 0
BBX 18 64 23 0
BITMAP
3FFF00
7FFF80
FFFFC0
FFFFC0
FFFFC0
FFFFC0
FFFFC0
FFFF80
FFFF00
FF8000
FF8000
FF8000
FF8000
FF8000
FF8000
FF8000
FF8000
FF8000
FF8000
FF8000
FF8000
FF8000
FF8000
FF8000
FF8000
FF8000
FF8000
FF8000
FF8000
FF8000
FF8000
FF8000
FF8000
FF8000
FF8000
FF8000
FF8000
FF8000
FF8000
FF8000
FF8000
FF8000
FF8000
FF8000
FF8000
FF8000
FF8000
FF8000
FF8000
FF8000
FF8000
FF8000
FF8000
FF8000
FF8000
FFFF00
FFFF80
FFFFC0
FFFFC0
FFFFC0
FFFFC0
FFFFC0
7FFF80
3FFF00
ENDCHAR
STARTCHAR 005C
ENCODING 92
SWIDTH 572 0
DWIDTH 55 0
BBX 45 64 5 0
BITMAP
3C0000000000
7E0000000000
FF0000000000
FF8000000000
FF8000000000
FF8000000000
FF8000000000
FF8000000000
FF8000000000
FF8000000000
FF8000000000
FF8000000000
FFC000000000
FFC000000000
FFE000000000
FFF000000000
7FF800000000
3FFC00000000
1FFE00000000
0FFF00000000
07FF80000000
03FFC0000000
01FFE0000000
00FFF0000000
007FF8000000
003FFC000000
001FFE000000
000FFF000000
0007FF800000
0003FFC00000
0001FFE00000
0000FFF00000
00007FF80000
00003FFC0000
00001FFE0000
00000FFF0000
000007FF8000
000003FFC000
000001FFE000
000000FFF000
0000007FF800
0000003FFC00
0000001FFE00
0000000FFF00
00000007FF80
00000003FFC0
00000001FFE0
00000000FFF0
000000007FF8
000000003FF8
000000001FF8
000000000FF8
000000000FF8
000000000FF8
000000000FF8
000000000FF8
000000000FF8
000000000FF8
000000000FF8
000000000FF8
000000000FF8
0000000007F8
0000000007F0
0000000001E0
ENDCHAR
STARTCHAR 005D
ENCODING 93
SWIDTH 572 0
DWIDTH 55 0
BBX 18 64 14 0
BITMAP
3FFE00
7FFF80
FFFF80
FFFFC0
FFFFC0
FFFFC0
FFFFC0
7FFFC0
3FFFC0
007FC0
007FC0
007FC0
007FC0
007FC0
007FC0
007FC0
007FC0
007FC0
007FC0
007FC0
007FC0
007FC0
007FC0
007FC0
007FC0
007FC0
007FC0
007FC0
007FC0
007FC0
007FC0
007FC0
007FC0
007FC0
007FC0
007FC0
007FC0
007FC0
007FC0
007FC0
007FC0
007FC0
007FC0
007FC0
007FC0
007FC0
007FC0
007FC0
007FC0
007FC0
007FC0
007FC0
007FC0
007FC0
007FC0
3FFFC0
7FFFC0
FFFFC0
FFFFC0
FFFFC0
FFFFC0
FFFF80
7FFF80
3FFE00
ENDCHAR
STARTCHAR 005E
ENCODING 94
SWIDTH 572 0
DWIDTH 55 0
BBX 45 27 5 36
BITMAP
00000F000000
00001FC00000
00003FE00000
00007FF00000
0000FFF80000
0001FFFC0000
0003FFFE0000
0007FFFF0000
000FFFFF8000
001FFFFFC000
003FFFFFE000
007FFDFFF000
00FFF8FFF800
01FFF07FFC00
03FFE03FFE00
07FFC01FFF00
0FFF800FFF80
1FFF0007FFC0
3FFE0003FFE0
7FFC0001FFF0
FFF80000FFF8
FFF000007FF8
FFE000003FF8
FFC000001FF8
FF8000000FF8
FF00000007F0
7E00000003E0
ENDCHAR
STARTCHAR 005F
ENCODING 95
SWIDTH 572 0
DWIDTH 55 0
BBX 45 9 5 -10
BITMAP
3FFFFFFFFFE0
7FFFFFFFFFF0
FFFFFFFFFFF8
FFFFFFFFFFF8
FFFFFFFFFFF8
FFFFFFFFFFF8
FFFFFFFFFFF8
7FFFFFFFFFF0
3FFFFFFFFFE0
ENDCHAR
STARTCHAR 0060
ENCODING 96
SWIDTH 572 0
DWIDTH 55 0
BBX 18 18 23 45
BITMAP
3C0000
7F0000
FF8000
FFC000
FFE000
FFF000
FFF800
7FFC00
3FFE00
1FFF00
0FFF80
07FFC0
03FFC0
01FFC0
00FFC0
007FC0
003F80
001F00
ENDCHAR
STARTCHAR 0061
ENCODING 97
SWIDTH 572 0
DWIDTH 55 0
BBX 45 46 5 0
BITMAP
000FFFFFC000
003FFFFFF800
007FFFFFFE00
007FFFFFFF00
007FFFFFFF80
007FFFFFFFC0
007FFFFFFFE0
003FFFFFFFF0
001FFFFFFFF0
00000000FFF0
000000003FF8
000000001FF8
000000000FF8
000000000FF8
000000000FF8
000000000FF8
000000000FF8
000000000FF8
000000000FF8
00FFFFFFFFF8
03FFFFFFFFF8
07FFFFFFFFF8
0FFFFFFFFFF8
1FFFFFFFFFF8
3FFFFFFFFFF8
7FFFFFFFFFF8
7FFFFFFFFFF8
FFFFFFFFFFF8
FFE000000FF8
FFC000000FF8
FF8000000FF8
FF8000000FF8
FF8000000FF8
FF8000000FF8
FF8000000FF8
FFC000000FF8
FFF000000FF8
7FFFFFFFFFF8
7FFFFFFFFFF8
3FFFFFFFFFF8
3FFFFFFFFFF8
1FFFFFFFFFF8
0FFFFFFFFFF8
03FFFFFFFFF8
01FFFFFFFFF0
003FFFFFFFE0
ENDCHAR
STARTCHAR 0062
ENCODING 98
SWIDTH 572 0
DWIDTH 55 0
BBX 45 64 5 0
BITMAP
3C0000000000
7E0000000000
FF0000000000
FF8000000000
FF8000000000
FF8000000000
FF8000000000
FF8000000000
FF8000000000
FF8000000000
FF8000000000
FF8000000000
FF8000000000
FF8000000000
FF8000000000
FF8000000000
FF8000000000
FF8000000000
FFFFFFFFC000
FFFFFFFFF800
FFFFFFFFFE00
FFFFFFFFFF00
FFFFFFFFFF80
FFFFFFFFFFC0
FFFFFFFFFFE0
FFFFFFFFFFF0
FFFFFFFFFFF0
FF800000FFF0
FF8000003FF8
FF8000001FF8
FF8000000FF8
FF8000000FF8
FF8000000FF8
FF8000000FF8
FF8000000FF8
FF8000000FF8
FF8000000FF8
FF8000000FF8
FF8000000FF8
FF8000000FF8
FF8000000FF8
FF8000000FF8
FF8000000FF8
FF8000000FF8
FF8000000FF8
FF8000000FF8
FF8000000FF8
FF8000000FF8
FF8000000FF8
FF8000000FF8
FF8000000FF8
FF8000000FF8
FF8000000FF8
FF8000001FF8
FF8000007FF8
FFFFFFFFFFF0
FFFFFFFFFFF0
FFFFFFFFFFE0
FFFFFFFFFFC0
FFFFFFFFFFC0
FFFFFFFFFF80
FFFFFFFFFE00
7FFFFFFFFC00
3FFFFFFFE000
ENDCHAR
STARTCHAR 0063
ENCODING 99
SWIDTH 572 0
DWIDTH 55 0
BBX 45 46 5 0
BITMAP
001FFFFFC000
00FFFFFFF800
03FFFFFFFE00
07FFFFFFFF00
0FFFFFFFFF80
1FFFFFFFFFC0
3FFFFFFFFFE0
7FFFFFFFFFF0
7FFFFFFFFFF0
FFF80000FFF0
FFC000003FF8
FF8000001FF8
FF8000000FF8
FF8000000FF8
FF8000000FF8
FF8000000FF8
FF80000007F8
FF80000003F0
FF8000000080
FF8000000000
FF8000000000
FF8000000000
FF8000000000
FF8000000000
FF8000000000
FF8000000000
FF8000000000
FF8000000000
FF80000003E0
FF80000007F0
FF80000007F8
FF8000000FF8
FF8000000FF8
FF8000000FF8
FF8000000FF8
FFC000001FF8
FFF000007FF8
7FFFFFFFFFF0
7FFFFFFFFFF0
3FFFFFFFFFE0
3FFFFFFFFFC0
1FFFFFFFFFC0
0FFFFFFFFF80
03FFFFFFFE00
01FFFFFFFC00
003FFFFFE000
ENDCHAR
STARTCHAR 0064
ENCODING 100
SWIDTH 572 0
DWIDTH 55 0
BBX 45 64 5 0
BITMAP
0000000001E0
0000000007F0
0000000007F8
000000000FF8
000000000FF8
000000000FF8
000000000FF8
000000000FF8
000000000FF8
000000000FF8
000000000FF8
000000000FF8
000000000FF8
000000000FF8
000000000FF8
000000000FF8
000000000FF8
000000000FF8
001FFFFFFFF8
00FFFFFFFFF8
03FFFFFFFFF8
07FFFFFFFFF8
0FFFFFFFFFF8
1FFFFFFFFFF8
3FFFFFFFFFF8
7FFFFFFFFFF8
7FFFFFFFFFF8
FFF800000FF8
FFC000000FF8
FF8000000FF8
FF8000000FF8
FF8000000FF8
FF8000000FF8
FF8000000FF8
FF8000000FF8
FF8000000FF8
FF8000000FF8
FF8000000FF8
FF8000000FF8
FF8000000FF8
FF8000000FF8
FF8000000FF8
FF8000000FF8
FF8000000FF8
FF8000000FF8
FF8000000FF8
FF8000000FF8
FF8000000FF8
FF8000000FF8
FF8000000FF8
FF8000000FF8
FF8000000FF8
FF8000000FF8
FFC000000FF8
FFF000000FF8
7FFFFFFFFFF8
7FFFFFFFFFF8
3FFFFFFFFFF8
3FFFFFFFFFF8
1FFFFFFFFFF8
0FFFFFFFFFF8
03FFFFFFFFF8
01FFFFFFFFF0
003FFFFFFFE0
ENDCHAR
STARTCHAR 0065
ENCODING 101
SWIDTH 572 0
DWIDTH 55 0
BBX 45 46 5 0
BITMAP
001FFFFFC000
00FFFFFFF800
03FFFFFFFE00
07FFFFFFFF00
0FFFFFFFFF80
1FFFFFFFFFC0
3FFFFFFFFFE0
7FFFFFFFFFF0
7FFFFFFFFFF0
FFF80000FFF0
FFC000003FF8
FF8000001FF8
FF8000000FF8
FF8000000FF8
FF8000000FF8
FF8000000FF8
FF8000000FF8
FF8000000FF8
FF8000000FF8
FFFFFFFFFFF8
FFFFFFFFFFF8
FFFFFFFFFFF8
FFFFFFFFFFF8
FFFFFFFFFFF8
FFFFFFFFFFF8
FFFFFFFFFFF8
FFFFFFFFFFF0
FFFFFFFFFFC0
FF8000000000
FF8000000000
FF8000000000
FF8000000000
FF8000000000
FF8000000000
FF8000000000
FFC000000000
FFF000000000
7FFFFFFFC000
7FFFFFFFE000
3FFFFFFFF000
3FFFFFFFF000
1FFFFFFFF000
0FFFFFFFF000
03FFFFFFF000
01FFFFFFE000
003FFFFFC000
ENDCHAR
STARTCHAR 0066
ENCODING 102
SWIDTH 572 0
DWIDTH 55 0
BBX 36 64 14 0
BITMAP
00001FFFC0
0000FFFFE0
0001FFFFF0
0003FFFFF0
0007FFFFF0
000FFFFFF0
001FFFFFF0
003FFFFFE0
003FFFFFC0
003FF80000
007FE00000
007FE00000
007FC00000
007FC00000
007FC00000
007FC00000
007FC00000
007FC00000
1FFFFF0000
7FFFFFC000
FFFFFFC000
FFFFFFE000
FFFFFFE000
FFFFFFE000
FFFFFFE000
7FFFFFC000
3FFFFF8000
007FC00000
007FC00000
007FC00000
007FC00000
007FC00000
007FC00000
007FC00000
007FC00000
007FC00000
007FC00000
007FC00000
007FC00000
007FC00000
007FC00000
007FC00000
007FC00000
007FC00000
007FC00000
007FC00000
007FC00000
007FC00000
007FC00000
007FC00000
007FC00000
007FC00000
007FC00000
007FC00000
007FC00000
007FC00000
007FC00000
007FC00000
007FC00000
007FC00000
007FC00000
007F800000
003F800000
001E000000
ENDCHAR
STARTCHAR 0067
ENCODING 103
SWIDTH 572 0
DWIDTH 55 0
BBX 45 55 5 -10
BITMAP
001FFFFFFFC0
00FFFFFFFFF0
03FFFFFFFFF8
07FFFFFFFFF8
0FFFFFFFFFF8
1FFFFFFFFFF8
3FFFFFFFFFF8
7FFFFFFFFFF8
7FFFFFFFFFF8
FFF800000FF8
FFC000000FF8
FF8000000FF8
FF8000000FF8
FF8000000FF8
FF8000000FF8
FF8000000FF8
FF8000000FF8
FF8000000FF8
FF8000000FF8
FF8000000FF8
FF8000000FF8
FF8000000FF8
FF8000000FF8
FF8000000FF8
FF8000000FF8
FF8000000FF8
FFC000000FF8
FFF000000FF8
7FFFFFFFFFF8
7FFFFFFFFFF8
3FFFFFFFFFF8
1FFFFFFFFFF8
1FFFFFFFFFF8
0FFFFFFFFFF8
03FFFFFFFFF8
01FFFFFFFFF8
003FFFFFFFF8
000000000FF8
000000000FF8
000000000FF8
000000000FF8
000000000FF8
000000000FF8
000000000FF8
000000001FF8
000000003FF8
001FFFFFFFF0
003FFFFFFFF0
007FFFFFFFE0
007FFFFFFFE0
007FFFFFFFC0
007FFFFFFF80
007FFFFFFF00
003FFFFFFC00
001FFFFFF000
ENDCHAR
STARTCHAR 0068
ENCODING 104
SWIDTH 572 0
DWIDTH 55 0
BBX 45 64 5 0
BITMAP
3C0000000000
7E0000000000
FF0000000000
FF8000000000
FF8000000000
FF8000000000
FF8000000000
FF8000000000
FF8000000000
FF8000000000
FF8000000000
FF8000000000
FF8000000000
FF8000000000
FF8000000000
FF8000000000
FF8000000000
FF8000000000
FFFFFFFFC000
FFFFFFFFF800
FFFFFFFFFE00
FFFFFFFFFF00
FFFFFFFFFF80
FFFFFFFFFFC0
FFFFFFFFFFE0
FFFFFFFFFFF0
FFFFFFFFFFF0
FF800000FFF0
FF8000003FF8
FF8000001FF8
FF8000000FF8
FF8000000FF8
FF8000000FF8
FF8000000FF8
FF8000000FF8
FF8000000FF8
FF8000000FF8
FF8000000FF8
FF8000000FF8
FF8000000FF8
FF8000000FF8
FF8000000FF8
FF8000000FF8
FF8000000FF8
FF8000000FF8
FF8000000FF8
FF8000000FF8
FF8000000FF8
FF8000000FF8
FF8000000FF8
FF8000000FF8
FF8000000FF8
FF8000000FF8
FF8000000FF8
FF8000000FF8
FF8000000FF8
FF8000000FF8
FF8000000FF8
FF8000000FF8
FF8000000FF8
FF8000000FF8
FF00000007F8
7E00000007F0
3C00000001E0
ENDCHAR
STARTCHAR 0069
ENCODING 105
SWIDTH 572 0
DWIDTH 55 0
BBX 27 64 14 0
BITMAP
001E0000
003F8000
007F8000
007FC000
007FC000
007FC000
007FC000
003F8000
001F0000
00000000
00000000
00000000
00000000
00000000
00000000
00000000
00000000
00000000
1FFE0000
7FFF0000
FFFF8000
FFFFC000
FFFFC000
FFFFC000
FFFFC000
7FFFC000
3FFFC000
007FC000
007FC000
007FC000
007FC000
007FC000
007FC000
007FC000
007FC000
007FC000
007FC000
007FC000
007FC000
007FC000
007FC000
007FC000
007FC000
007FC000
007FC000
007FC000
007FC000
007FC000
007FC000
007FC000
007FC000
007FC000
007FC000
007FC000
007FC000
3FFFFF80
7FFFFFC0
FFFFFFE0
FFFFFFE0
FFFFFFE0
FFFFFFE0
FFFFFFE0
7FFFFFC0
3FFFFF80
ENDCHAR
STARTCHAR 006A
ENCODING 106
SWIDTH 572 0
DWIDTH 55 0
BBX 36 73 5 -10
BITMAP
00000003C0
0000000FE0
0000000FF0
0000001FF0
0000001FF0
0000001FF0
0000001FF0
0000000FE0
00000007C0
0000000000
0000000000
0000000000
0000000000
0000000000
0000000000
0000000000
0000000000
0000000000
000007FF80
00001FFFE0
00001FFFE0
00003FFFF0
00003FFFF0
00003FFFF0
00003FFFF0
00001FFFF0
00000FFFF0
0000001FF0
0000001FF0
0000001FF0
0000001FF0
0000001FF0
0000001FF0
0000001FF0
0000001FF0
0000001FF0
0000001FF0
0000001FF0
0000001FF0
0000001FF0
0000001FF0
0000001FF0
0000001FF0
0000001FF0
0000001FF0
0000001FF0
0000001FF0
0000001FF0
0000001FF0
0000001FF0
0000001FF0
0000001FF0
0000001FF0
0000001FF0
0000001FF0
3C00001FF0
7F00001FF0
FF00001FF0
FF80001FF0
FF80001FF0
FF80001FF0
FF80003FF0
FFC0003FF0
FFE000FFF0
7FFFFFFFE0
7FFFFFFFE0
3FFFFFFFC0
3FFFFFFF80
1FFFFFFF80
0FFFFFFF00
07FFFFFC00
01FFFFF800
007FFFE000
ENDCHAR
STARTCHAR 006B
ENCODING 107
SWIDTH 572 0
DWIDTH 55 0
BBX 36 64 14 0
BITMAP
3C00000000
7F00000000
FF00000000
FF80000000
FF80000000
FF80000000
FF80000000
FF80000000
FF80000000
FF80000000
FF80000000
FF80000000
FF80000000
FF80000000
FF80000000
FF80000000
FF80000000
FF80000000
FF80000180
FF800007E0
FF80000FF0
FF80001FF0
FF80003FF0
FF80007FF0
FF8000FFF0
FF8001FFE0
FF8003FFC0
FF8007FF80
FF800FFF00
FF801FFE00
FF803FFC00
FF807FF800
FF80FFF000
FF81FFE000
FF83FFC000
FF8FFF8000
FF9FFF0000
FFBFFE0000
FFFFFC0000
FFFFF80000
FFFFF00000
FFFFF00000
FFFFF80000
FFFFFC0000
FFFFFE0000
FFFFFF0000
FFFFFF8000
FFFFFFC000
FFF3FFE000
FFE1FFF000
FFC0FFF800
FF807FFC00
FF803FFE00
FF801FFF00
FF800FFF80
FF8007FFC0
FF8003FFE0
FF8001FFF0
FF8000FFF0
FF80007FF0
FF80003FF0
FF00001FF0
7F00000FE0
3C000003C0
ENDCHAR
STARTCHAR 006C
ENCODING 108
SWIDTH 572 0
DWIDTH 55 0
BBX 27 64 14 0
BITMAP
3FFE0000
7FFF8000
FFFF8000
FFFFC000
FFFFC000
FFFFC000
FFFFC000
7FFFC000
3FFFC000
007FC000
007FC000
007FC000
007FC000
007FC000
007FC000
007FC000
007FC000
007FC000
007FC000
007FC000
007FC000
007FC000
007FC000
007FC000
007FC000
007FC000
007FC000
007FC000
007FC000
007FC000
007FC000
007FC000
007FC000
007FC000
007FC000
007FC000
007FC000
007FC000
007FC000
007FC000
007FC000
007FC000
007FC000
007FC000
007FC000
007FC000
007FC000
007FC000
007FC000
007FC000
007FC000
007FC000
007FC000
007FC000
007FC000
3FFFFF80
7FFFFFC0
FFFFFFE0
FFFFFFE0
FFFFFFE0
FFFFFFE0
FFFFFFE0
7FFFFFC0
3FFFFF80
ENDCHAR
STARTCHAR 006D
ENCODING 109
SWIDTH 572 0
DWIDTH 55 0
BBX 45 46 5 0
BITMAP
1FFE0007C000
7FFFE03FF800
FFFFF87FFE00
FFFFFCFFFF00
FFFFFFFFFF80
FFFFFFFFFFC0
FFFFFFFFFFE0
FFFFFFFFFFF0
FFFFFFFFFFF0
FF83FFFEFFF0
FF80FFF83FF8
FF807FF01FF8
FF803FE00FF8
FF803FE00FF8
FF803FE00FF8
FF803FE00FF8
FF803FE00FF8
FF803FE00FF8
FF803FE00FF8
FF803FE00FF8
FF803FE00FF8
FF803FE00FF8
FF803FE00FF8
FF803FE00FF8
FF803FE00FF8
FF803FE00FF8
FF803FE00FF8
FF803FE00FF8
FF803FE00FF8
FF803FE00FF8
FF803FE00FF8
FF803FE00FF8
FF803FE00FF8
FF803FE00FF8
FF803FE00FF8
FF803FE00FF8
FF803FE00FF8
FF803FE00FF8
FF803FE00FF8
FF803FE00FF8
FF803FE00FF8
FF803FE00FF8
FF803FE00FF8
FF003FC007F8
7E001FC007F0
3C000F0001E0
ENDCHAR
STARTCHAR 006E
ENCODING 110
SWIDTH 572 0
DWIDTH 55 0
BBX 45 46 5 0
BITMAP
1FFFFFFFC000
7FFFFFFFF800
FFFFFFFFFE00
FFFFFFFFFF00
FFFFFFFFFF80
FFFFFFFFFFC0
FFFFFFFFFFE0
FFFFFFFFFFF0
FFFFFFFFFFF0
FF800000FFF0
FF8000003FF8
FF8000001FF8
FF8000000FF8
FF8000000FF8
FF8000000FF8
FF8000000FF8
FF8000000FF8
FF8000000FF8
FF8000000FF8
FF8000000FF8
FF8000000FF8
FF8000000FF8
FF8000000FF8
FF8000000FF8
FF8000000FF8
FF8000000FF8
FF8000000FF8
FF8000000FF8
FF8000000FF8
FF8000000FF8
FF8000000FF8
FF8000000FF8
FF8000000FF8
FF8000000FF8
FF8000000FF8
FF8000000FF8
FF8000000FF8
FF8000000FF8
FF8000000FF8
FF8000000FF8
FF8000000FF8
FF8000000FF8
FF8000000FF8
FF00000007F8
7E00000007F0
3C00000001E0
ENDCHAR
STARTCHAR 006F
ENCODING 111
SWIDTH 572 0
DWIDTH 55 0
BBX 45 46 5 0
BITMAP
001FFFFFC000
00FFFFFFF800
03FFFFFFFE00
07FFFFFFFF00
0FFFFFFFFF80
1FFFFFFFFFC0
3FFFFFFFFFE0
7FFFFFFFFFF0
7FFFFFFFFFF0
FFF80000FFF0
FFC000003FF8
FF8000001FF8
FF8000000FF8
FF8000000FF8
FF8000000FF8
FF8000000FF8
FF8000000FF8
FF8000000FF8
FF8000000FF8
FF8000000FF8
FF8000000FF8
FF8000000FF8
FF8000000FF8
FF8000000FF8
FF8000000FF8
FF8000000FF8
FF8000000FF8
FF8000000FF8
FF8000000FF8
FF8000000FF8
FF8000000FF8
FF8000000FF8
FF8000000FF8
FF8000000FF8
FF8000000FF8
FFC000001FF8
FFF000007FF8
7FFFFFFFFFF0
7FFFFFFFFFF0
3FFFFFFFFFE0
3FFFFFFFFFC0
1FFFFFFFFFC0
0FFFFFFFFF80
03FFFFFFFE00
01FFFFFFFC00
003FFFFFE000
ENDCHAR
STARTCHAR 0070
ENCODING 112
SWIDTH 572 0
DWIDTH 55 0
BBX 45 55 5 -10
BITMAP
1FFFFFFFC000
7FFFFFFFF800
FFFFFFFFFE00
FFFFFFFFFF00
FFFFFFFFFF80
FFFFFFFFFFC0
FFFFFFFFFFE0
FFFFFFFFFFF0
FFFFFFFFFFF0
FF800000FFF0
FF8000003FF8
FF8000001FF8
FF8000000FF8
FF8000000FF8
FF8000000FF8
FF8000000FF8
FF8000000FF8
FF8000000FF8
FF8000000FF8
FF8000000FF8
FF8000000FF8
FF8000000FF8
FF8000000FF8
FF8000000FF8
FF8000000FF8
FF8000001FF8
FF8000001FF8
FF8000007FF8
FFFFFFFFFFF0
FFFFFFFFFFF0
FFFFFFFFFFE0
FFFFFFFFFFC0
FFFFFFFFFF80
FFFFFFFFFF00
FFFFFFFFFE00
FFFFFFFFF800
FFFFFFFFE000
FF8000000000
FF8000000000
FF8000000000
FF8000000000
FF8000000000
FF8000000000
FF8000000000
FF8000000000
FF8000000000
FF8000000000
FF8000000000
FF8000000000
FF8000000000
FF8000000000
FF8000000000
FF0000000000
7F0000000000
3C0000000000
ENDCHAR
STARTCHAR 0071
ENCODING 113
SWIDTH 572 0
DWIDTH 55 0
BBX 45 55 5 -10
BITMAP
001FFFFFFFC0
00FFFFFFFFF0
03FFFFFFFFF8
07FFFFFFFFF8
0FFFFFFFFFF8
1FFFFFFFFFF8
3FFFFFFFFFF8
7FFFFFFFFFF8
7FFFFFFFFFF8
FFF800000FF8
FFC000000FF8
FF8000000FF8
FF8000000FF8
FF8000000FF8
FF8000000FF8
FF8000000FF8
FF8000000FF8
FF8000000FF8
FF8000000FF8
FF8000000FF8
FF8000000FF8
FF8000000FF8
FF8000000FF8
FF8000000FF8
FF8000000FF8
FF8000000FF8
FFC000000FF8
FFF000000FF8
7FFFFFFFFFF8
7FFFFFFFFFF8
3FFFFFFFFFF8
1FFFFFFFFFF8
1FFFFFFFFFF8
0FFFFFFFFFF8
03FFFFFFFFF8
01FFFFFFFFF8
003FFFFFFFF8
000000000FF8
000000000FF8
000000000FF8
000000000FF8
000000000FF8
000000000FF8
000000000FF8
000000000FF8
000000000FF8
000000000FF8
000000000FF8
000000000FF8
000000000FF8
000000000FF8
000000000FF8
0000000007F8
0000000007F0
0000000003E0
ENDCHAR
STARTCHAR 0072
ENCODING 114
SWIDTH 572 0
DWIDTH 55 0
BBX 36 46 14 0
BITMAP
1FFFFF8000
7FFFFFF000
FFFFFFFC00
FFFFFFFE00
FFFFFFFF00
FFFFFFFF80
FFFFFFFFC0
FFFFFFFFE0
FFFFFFFFE0
FF8001FFE0
FF80007FF0
FF80003FF0
FF80001FF0
FF80001FF0
FF80001FF0
FF80001FF0
FF80000FF0
FF800007E0
FF80000100
FF80000000
FF80000000
FF80000000
FF80000000
FF80000000
FF80000000
FF80000000
FF80000000
FF80000000
FF80000000
FF80000000
FF80000000
FF80000000
FF80000000
FF80000000
FF80000000
FF80000000
FF80000000
FF80000000
FF80000000
FF80000000
FF80000000
FF80000000
FF80000000
FF00000000
7F00000000
3C00000000
ENDCHAR
STARTCHAR 0073
ENCODING 115
SWIDTH 572 0
DWIDTH 55 0
BBX 45 46 5 0
BITMAP
001FFFFFFFC0
00FFFFFFFFF0
03FFFFFFFFF8
07FFFFFFFFF8
0FFFFFFFFFF8
1FFFFFFFFFF8
3FFFFFFFFFF8
7FFFFFFFFFF0
7FFFFFFFFFE0
FFF800000000
FFC000000000
FF8000000000
FF8000000000
FF8000000000
FF8000000000
FF8000000000
FF8000000000
FFC000000000
FFF800000000
7FFFFFFFF000
7FFFFFFFFC00
3FFFFFFFFF00
1FFFFFFFFF80
0FFFFFFFFFC0
07FFFFFFFFE0
03FFFFFFFFE0
00FFFFFFFFF0
001FFFFFFFF0
000000003FF8
000000001FF8
000000000FF8
000000000FF8
000000000FF8
000000000FF8
000000000FF8
000000001FF8
000000007FF8
3FFFFFFFFFF0
7FFFFFFFFFF0
FFFFFFFFFFE0
FFFFFFFFFFC0
FFFFFFFFFFC0
FFFFFFFFFF80
FFFFFFFFFE00
7FFFFFFFFC00
3FFFFFFFE000
ENDCHAR
STARTCHAR 0074
ENCODING 116
SWIDTH 572 0
DWIDTH 55 0
BBX 36 64 14 0
BITMAP
001E000000
003F800000
007F800000
007FC00000
007FC00000
007FC00000
007FC00000
007FC00000
007FC00000
007FC00000
007FC00000
007FC00000
007FC00000
007FC00000
007FC00000
007FC00000
007FC00000
007FC00000
1FFFFFFF80
7FFFFFFFE0
FFFFFFFFF0
FFFFFFFFF0
FFFFFFFFF0
FFFFFFFFF0
FFFFFFFFF0
7FFFFFFFE0
3FFFFFFFC0
007FC00000
007FC00000
007FC00000
007FC00000
007FC00000
007FC00000
007FC00000
007FC00000
007FC00000
007FC00000
007FC00000
007FC00000
007FC00000
007FC00000
007FC00000
007FC00000
007FC00000
007FC00000
007FC00000
007FC00000
007FC00000
007FC00000
007FC00000
007FC00000
007FC00000
007FE00000
007FE00000
003FF80000
003FFFFFC0
003FFFFFE0
001FFFFFF0
000FFFFFF0
0007FFFFF0
0003FFFFF0
0001FFFFF0
0000FFFFE0
00001FFFC0
ENDCHAR
STARTCHAR 0075
ENCODING 117
SWIDTH 572 0
DWIDTH 55 0
BBX 45 46 5 0
BITMAP
1800000000C0
7E00000003F0
FF00000007F8
FF0000000FF8
FF8000000FF8
FF8000000FF8
FF8000000FF8
FF8000000FF8
FF8000000FF8
FF8000000FF8
FF8000000FF8
FF8000000FF8
FF8000000FF8
FF8000000FF8
FF8000000FF8
FF8000000FF8
FF8000000FF8
FF8000000FF8
FF8000000FF8
FF8000000FF8
FF8000000FF8
FF8000000FF8
FF8000000FF8
FF8000000FF8
FF8000000FF8
FF8000000FF8
FF8000000FF8
FF8000000FF8
FF8000000FF8
FF8000000FF8
FF8000000FF8
FF8000000FF8
FF8000000FF8
FF8000000FF8
FF8000000FF8
FFC000000FF8
FFF000000FF8
7FFFFFFFFFF8
7FFFFFFFFFF8
3FFFFFFFFFF8
3FFFFFFFFFF8
1FFFFFFFFFF8
0FFFFFFFFFF8
03FFFFFFFFF8
01FFFFFFFFF0
003FFFFFFFE0
ENDCHAR
STARTCHAR 0076
ENCODING 118
SWIDTH 572 0
DWIDTH 55 0
BBX 45 46 5 0
BITMAP
1800000000C0
7E00000003F0
FF00000007F8
FF0000000FF8
FF8000000FF8
FF8000000FF8
FF8000000FF8
FF8000000FF8
FF8000000FF8
FF8000000FF8
FF8000000FF8
FF8000000FF8
FF8000000FF8
FF8000000FF8
FF8000000FF8
FF8000000FF8
FF8000000FF8
FF8000000FF8
FF8000000FF8
FF8000001FF8
FFC000003FF8
FFE000007FF8
FFF00000FFF8
FFF80001FFF8
FFFC0003FFF8
FFFE0007FFF8
7FFF000FFFF0
3FFF801FFFE0
1FFFC03FFFC0
0FFFE07FFF80
07FFF0FFFF00
03FFF9FFFE00
01FFFFFFFC00
00FFFFFFF800
007FFFFFF000
003FFFFFE000
001FFFFFC000
000FFFFF8000
0007FFFF0000
0003FFFE0000
0001FFFC0000
0000FFF80000
00007FF00000
00003FE00000
00001FC00000
00000F000000
ENDCHAR
STARTCHAR 0077
ENCODING 119
SWIDTH 572 0
DWIDTH 55 0
BBX 45 46 5 0
BITMAP
1800000000C0
7E00000003F0
FF00000007F8
FF0000000FF8
FF8000000FF8
FF8000000FF8
FF8000000FF8
FF8000000FF8
FF8000000FF8
FF8002000FF8
FF800F800FF8
FF801FC00FF8
FF803FE00FF8
FF803FE00FF8
FF803FE00FF8
FF803FE00FF8
FF803FE00FF8
FF803FE00FF8
FF803FE00FF8
FF803FE00FF8
FF803FE00FF8
FF803FE00FF8
FF803FE00FF8
FF803FE00FF8
FF803FE00FF8
FF803FE00FF8
FF803FE00FF8
FF803FE00FF8
FF803FE00FF8
FF803FE00FF8
FF803FE00FF8
FF803FE00FF8
FF803FE00FF8
FF803FE00FF8
FF807FF00FF8
FFC0FFF01FF8
FFF1FFFC7FF8
7FFFFFFFFFF0
7FFFFFFFFFF0
3FFFFFFFFFE0
3FFFFFFFFFC0
1FFFFFFFFFC0
0FFFF9FFFF80
03FFF0FFFE00
01FFE07FFC00
003F800FE000
ENDCHAR
STARTCHAR 0078
ENCODING 120
SWIDTH 572 0
DWIDTH 55 0
BBX 45 46 5 0
BITMAP
1800000000C0
7E00000003F0
FF00000007F8
FF8000000FF8
FFC000001FF8
FFE000003FF8
FFF000007FF8
FFF80000FFF0
7FFC0001FFE0
3FFE0003FFC0
1FFF0007FF80
0FFF800FFF00
07FFC01FFE00
03FFE03FFC00
01FFF0FFF800
00FFF9FFF000
007FFFFFE000
003FFFFFC000
001FFFFF8000
000FFFFF0000
0007FFFE0000
0003FFFC0000
0001FFF80000
0001FFF80000
0003FFFC0000
0007FFFE0000
0007FFFF0000
000FFFFF8000
001FFFFFC000
003FFDFFE000
007FF8FFF000
00FFF07FF800
01FFE03FFC00
03FFC01FFE00
07FF800FFF00
0FFF0007FF80
1FFE0007FFC0
3FFC0003FFE0
7FF80001FFF0
FFF00000FFF8
FFE000007FF8
FFC000003FF8
FF8000001FF8
FF0000000FF8
7E00000007F0
3C00000001E0
ENDCHAR
STARTCHAR 0079
ENCODING 121
SWIDTH 572 0
DWIDTH 55 0
BBX 45 55 5 -10
BITMAP
1800000000C0
7E00000003F0
FF00000007F8
FF0000000FF8
FF8000000FF8
FF8000000FF8
FF8000000FF8
FF8000000FF8
FF8000000FF8
FF8000000FF8
FF8000000FF8
FF8000000FF8
FF8000000FF8
FF8000000FF8
FF8000000FF8
FF8000000FF8
FF8000000FF8
FF8000000FF8
FF8000000FF8
FF8000000FF8
FF8000000FF8
FF8000000FF8
FF8000000FF8
FF8000000FF8
FF8000000FF8
FF8000000FF8
FFC000000FF8
FFF000000FF8
7FFFFFFFFFF8
7FFFFFFFFFF8
3FFFFFFFFFF8
1FFFFFFFFFF8
1FFFFFFFFFF8
0FFFFFFFFFF8
03FFFFFFFFF8
01FFFFFFFFF8
003FFFFFFFF8
000000000FF8
000000000FF8
000000000FF8
000000000FF8
000000000FF8
000000000FF8
000000000FF8
000000001FF8
000000003FF8
001FFFFFFFF0
003FFFFFFFF0
007FFFFFFFE0
007FFFFFFFE0
007FFFFFFFC0
007FFFFFFF80
007FFFFFFF00
003FFFFFFC00
001FFFFFF000
ENDCHAR
STARTCHAR 007A
ENCODING 122
SWIDTH 572 0
DWIDTH 55 0
BBX 45 46 5 0
BITMAP
1FFFFFFFFFC0
7FFFFFFFFFF0
FFFFFFFFFFF8
FFFFFFFFFFF8
FFFFFFFFFFF8
FFFFFFFFFFF8
FFFFFFFFFFF8
FFFFFFFFFFF0
7FFFFFFFFFE0
00000007FFC0
0000000FFF80
0000001FFF00
0000003FFE00
0000007FFC00
000000FFF800
000001FFF000
000001FFE000
000003FFC000
000007FF8000
00000FFF0000
00001FFE0000
00003FFC0000
00007FF80000
0000FFF00000
0001FFE00000
0003FFC00000
0007FF800000
000FFF000000
001FFE000000
003FFC000000
007FF8000000
00FFF0000000
01FFE0000000
03FFC0000000
07FF80000000
0FFF00000000
1FFE00000000
3FFFFFFFFFE0
7FFFFFFFFFF0
FFFFFFFFFFF8
FFFFFFFFFFF8
FFFFFFFFFFF8
FFFFFFFFFFF8
FFFFFFFFFFF8
7FFFFFFFFFF0
3FFFFFFFFFE0
ENDCHAR
STARTCHAR 007B
ENCODING 123
SWIDTH 572 0
DWIDTH 55 0
BBX 27 64 14 0
BITMAP
3F000000
7FC00000
FFF00000
FFF80000
FFFC0000
FFFE0000
FFFF0000
7FFF0000
3FFF8000
03FF8000
01FFC000
00FFC000
007FC000
007FC000
007FC000
007FC000
007FC000
007FC000
007FC000
007FC000
007FC000
007FC000
007FC000
007FC000
007FC000
007FE000
007FF000
003FFE00
003FFF80
001FFFC0
001FFFE0
000FFFE0
0007FFE0
000FFFE0
001FFFC0
003FFF80
003FFE00
007FF000
007FE000
007FC000
007FC000
007FC000
007FC000
007FC000
007FC000
007FC000
007FC000
007FC000
007FC000
007FC000
007FC000
007FC000
00FFC000
01FFC000
03FF8000
3FFF8000
7FFF0000
FFFF0000
FFFE0000
FFFC0000
FFF80000
FFF00000
7FC00000
3F000000
ENDCHAR
STARTCHAR 007C
ENCODING 124
SWIDTH 572 0
DWIDTH 55 0
BBX 9 64 23 0
BITMAP
3C00
7F00
FF00
FF80
FF80
FF80
FF80
FF80
FF80
FF80
FF80
FF80
FF80
FF80
FF80
FF80
FF80
FF80
FF80
FF80
FF80
FF80
FF80
FF80
FF80
FF80
FF80
FF80
FF80
FF80
FF80
FF80
FF80
FF80
FF80
FF80
FF80
FF80
FF80
FF80
FF80
FF80
FF80
FF80
FF80
FF80
FF80
FF80
FF80
FF80
FF80
FF80
FF80
FF80
FF80
FF80
FF80
FF80
FF80
FF80
FF80
FF00
7F00
3C00
ENDCHAR
STARTCHAR 007D
ENCODING 125
SWIDTH 572 0
DWIDTH 55 0
BBX 27 64 14 0
BITMAP
00001F80
0000FFC0
0001FFE0
0003FFE0
0007FFE0
000FFFE0
001FFFE0
003FFFC0
003FFF80
003FF800
007FE000
007FE000
007FC000
007FC000
007FC000
007FC000
007FC000
007FC000
007FC000
007FC000
007FC000
007FC000
007FC000
007FC000
007FC000
00FFC000
01FF8000
0FFF8000
7FFF8000
FFFF0000
FFFF0000
FFFE0000
FFFC0000
FFFE0000
FFFF0000
7FFF8000
0FFF8000
01FF8000
00FFC000
007FC000
007FC000
007FC000
007FC000
007FC000
007FC000
007FC000
007FC000
007FC000
007FC000
007FC000
007FC000
007FC000
007FE000
007FE000
003FF800
003FFF80
003FFFC0
001FFFE0
000FFFE0
0007FFE0
0003FFE0
0001FFE0
0000FFC0
00001F80
ENDCHAR
STARTCHAR 007E
ENCODING 126
SWIDTH 572 0
DWIDTH 55 0
BBX 45 27 5 36
BITMAP
003F80000000
01FFE0000000
03FFF8000000
0FFFFC000000
1FFFFE000000
1FFFFF000000
3FFFFF800000
7FFFFF800000
7FFFFFC00000
FFF1FFC001C0
FFC0FFE003F0
FF807FE007F8
FF803FE00FF8
FF803FE00FF8
FF803FE00FF8
FF003FE00FF8
7F003FF01FF8
3E003FF83FF8
00001FFFFFF0
00001FFFFFF0
00000FFFFFE0
00000FFFFFE0
000007FFFFC0
000003FFFF80
000001FFFF00
0000007FFC00
0000001FF000
ENDCHAR
STARTCHAR 007F
ENCODING 127
SWIDTH 572 0
DWIDTH 55 0
BBX 45 64 5 0
BITMAP
3FFFFFFFFFE0
7FFFFFFFFFF0
FFFFFFFFFFF8
FFFFFFFFFFF8
FFFFFFFFFFF8
FFFFFFFFFFF8
FFFFFFFFFFF8
FFFFFFFFFFF8
FFFFFFFFFFF8
FFFFFFFFFFF8
FFFFFFFFFFF8
FFFFFFFFFFF8
FFFFFFFFFFF8
FFFFFFFFFFF8
FFFFFFFFFFF8
FFFFFFFFFFF8
FFFFFFFFFFF8
FFFFFFFFFFF8
FFFFFFFFFFF8
FFFFFFFFFFF8
FFFFFFFFFFF8
FFFFFFFFFFF8
FFFFFFFFFFF8
FFFFFFFFFFF8
FFFFFFFFFFF8
FFFFFFFFFFF8
FFFFFFFFFFF8
FFFFFFFFFFF8
FFFFFFFFFFF8
FFFFFFFFFFF8
FFFFFFFFFFF8
FFFFFFFFFFF8
FFFFFFFFFFF8
FFFFFFFFFFF8
FFFFFFFFFFF8
FFFFFFFFFFF8
FFFFFFFFFFF8
FFFFFFFFFFF8
FFFFFFFFFFF8
FFFFFFFFFFF8
FFFFFFFFFFF8
FFFFFFFFFFF8
FFFFFFFFFFF8
FFFFFFFFFFF8
FFFFFFFFFFF8
FFFFFFFFFFF8
FFFFFFFFFFF8
FFFFFFFFFFF8
FFFFFFFFFFF8
FFFFFFFFFFF8
FFFFFFFFFFF8
FFFFFFFFFFF8
FFFFFFFFFFF8
FFFFFFFFFFF8
FFFFFFFFFFF8
FFFFFFFFFFF8
FFFFFFFFFFF8
FFFFFFFFFFF8
FFFFFFFFFFF8
FFFFFFFFFFF8
FFFFFFFFFFF8
FFFFFFFFFFF8
7FFFFFFFFFF0
3FFFFFFFFFE0
ENDCHAR
ENDFONT
